<svg width="108" height="100" viewBox="0 0 108 100" fill="none" xmlns="http://www.w3.org/2000/svg">
<path fill-rule="evenodd" clip-rule="evenodd" d="M95.0171 46.336C95.0171 20.224 74.4731 0 47.9131 0C21.3531 0 0.809082 20.224 0.809082 46.336C0.809082 72.448 21.3531 92.672 47.9131 92.672C57.5131 92.672 66.3451 89.984 73.7051 85.376L86.9531 99.584L94.6971 92.48L81.9611 78.784C90.0891 70.464 95.0171 59.136 95.0171 46.336ZM65.9611 76.992C60.7131 80.192 54.5691 82.048 47.9131 82.048C28.4571 82.048 13.0331 66.368 13.0331 46.336C13.0331 26.304 28.4571 10.624 47.9131 10.624C67.3691 10.624 82.7931 26.304 82.7931 46.336C82.7931 55.616 79.4651 63.936 74.0251 70.208C71.4855 73.136 69.0001 75.636 65.9611 76.992Z" fill="#E9EAEB"/>
<path d="M104.45 4.55212C103.947 3.89559 102.234 4.15661 101.4 4.38679C100.713 4.65539 100.093 5.09078 99.5878 5.65904C99.4626 5.77831 99.3384 5.89707 99.2148 6.01007C81.2293 22.3809 63.783 38.5366 48.0556 56.1891C47.7401 56.5427 47.4074 56.8759 46.9468 57.3399C46.7072 57.58 46.4345 57.8532 46.1136 58.1802C44.1429 55.8554 39.637 50.3693 36.0048 45.9483C34.0974 43.6272 32.4334 41.6016 31.5097 40.4884C30.9986 39.8483 30.5197 39.1793 30.0751 38.4843C29.7736 38.0307 29.4615 37.561 29.1347 37.1158C28.5363 36.2992 27.4211 34.7821 25.8448 35.9497C24.5091 36.9437 25.017 38.3561 25.6043 39.4814C25.6729 39.6111 25.7401 39.7429 25.8068 39.8747C26.0451 40.3762 26.322 40.8553 26.6347 41.3071C29.4284 45.1008 38.2526 56.7462 41.17 60.1951C43.5162 62.9677 45.0287 64.0748 46.5631 64.136C46.605 64.136 46.6473 64.136 46.6892 64.136C48.4423 64.136 50.2314 62.6785 52.5327 60.3381C64.6449 48.0116 75.584 37.0065 85.9758 26.6972C89.292 23.4062 92.7616 20.1727 96.1172 17.0449C98.1907 15.1125 100.334 13.1141 102.421 11.1221C103.437 10.1532 104.382 9.18646 104.793 8.03087C105.14 7.05367 105.067 5.35721 104.45 4.55212Z" fill="#35BC8A" stroke="#35BC8A" stroke-width="6"/>
</svg>
