<svg width="40" height="40" viewBox="0 0 50 50" fill="none" xmlns="http://www.w3.org/2000/svg">
<circle cx="25" cy="25" r="25" fill="#FCEFEC"/>
<g clip-path="url(#clip0_585_611)">
<path d="M37.8987 25.3744C37.8987 28.0779 37.9067 30.7815 37.8932 33.4851C37.8972 34.1779 37.8552 34.8704 37.7675 35.5576C37.5858 36.8632 36.9102 37.8792 35.821 38.6125C35.0249 39.1632 34.103 39.5024 33.1413 39.5978C29.5036 39.9636 25.8398 39.9863 22.1979 39.6654C20.7563 39.5388 19.2996 39.5343 17.8965 39.1318C17.1654 38.9381 16.4515 38.6841 15.7621 38.3723C14.4371 37.7396 13.6365 36.6629 13.3253 35.2089C13.136 34.3993 13.0352 33.5714 13.0249 32.7398C13.0475 28.0951 13.0632 23.4502 13.0721 18.8053C13.0872 17.4187 13.1933 16.0347 13.3899 14.6621C13.468 14.0439 13.6266 13.4386 13.8616 12.8619C14.5036 11.3341 15.6413 10.4103 17.3279 10.3114C19.1855 10.2023 21.0448 10.1043 22.9048 10.0625C24.6274 10.0232 26.3525 10.0366 28.0753 10.0783C29.3832 10.1101 30.6893 10.2206 31.9959 10.3008C32.3414 10.324 32.6727 10.4484 32.9486 10.6587C34.6138 11.8956 36.1355 13.3169 37.4847 14.8959C37.8703 15.342 37.9771 15.8476 37.9682 16.4321C37.9202 19.4124 37.9017 22.3932 37.8728 25.3739L37.8987 25.3744ZM26.456 38.4585C28.1814 38.3953 30.1076 38.3281 32.0339 38.2515C32.4466 38.2351 32.8593 38.2008 33.2677 38.1432C33.8858 38.0547 34.4623 37.779 34.9207 37.3529C35.6131 36.7277 36.0763 35.9692 36.1589 35.0315C36.2376 34.1366 36.2616 33.236 36.2871 32.3374C36.3342 30.6773 36.3678 29.0172 36.4008 27.3571C36.4159 26.5962 36.4849 25.8282 36.4098 25.0755C36.2233 23.2086 36.2942 21.3403 36.288 19.4728C36.2856 18.7809 36.2762 18.0889 36.2552 17.3977C36.245 17.0565 35.9418 16.7912 35.5595 16.7782C34.6651 16.7475 33.7698 16.7401 32.8762 16.6961C32.465 16.6708 32.0562 16.6157 31.6529 16.5311C31.292 16.4599 30.9144 16.0104 30.8736 15.644C30.8395 15.3698 30.8198 15.0939 30.8146 14.8176C30.8097 13.9876 30.8201 13.1575 30.8191 12.3275C30.808 12.191 30.753 12.0618 30.6622 11.9597C30.5712 11.8576 30.4498 11.7883 30.3161 11.7622C30.1106 11.7434 29.905 11.7196 29.6991 11.7161C27.1519 11.6718 24.6047 11.6213 22.0576 11.5941C21.0256 11.5832 19.9929 11.6256 18.9606 11.6446C18.2012 11.6634 17.4513 11.8184 16.746 12.1023C15.7617 12.4892 15.2029 13.2299 15.111 14.2952C15.0902 14.6406 15.0936 14.9871 15.1211 15.332C15.246 17.6154 15.2006 19.8987 15.1558 22.1834C15.0866 25.7132 15.0474 29.2438 15.0191 32.7742C15.0064 33.6046 15.0533 34.435 15.1595 35.2586C15.2125 35.7093 15.3793 36.1389 15.6442 36.5064C15.909 36.874 16.263 37.1671 16.6724 37.3581C17.1053 37.568 17.5608 37.7272 18.0299 37.8325C19.0342 38.0765 20.0599 38.2206 21.0922 38.2626C22.8133 38.3119 24.5332 38.3866 26.456 38.4585ZM33.6067 15.3175C33.9369 15.3001 34.2082 15.3039 34.4707 15.2626C34.5678 15.2473 34.6606 15.1359 34.7301 15.0481C34.7404 15.0172 34.7431 14.9843 34.7381 14.9522C34.733 14.92 34.7205 14.8894 34.7016 14.863C34.2149 14.2201 33.6194 13.6685 32.9424 13.2334C32.8894 13.2252 32.8353 13.2285 32.7837 13.243C32.7321 13.2574 32.6841 13.2826 32.6429 13.3171C32.6182 13.8507 32.6057 14.3861 32.6258 14.9197C32.6413 14.9841 32.6721 15.0437 32.7155 15.0935C32.7589 15.1434 32.8136 15.182 32.875 15.2059C33.1159 15.2607 33.3605 15.2979 33.6067 15.3173V15.3175Z" fill="#FC7557"/>
<path d="M25.3592 20.3118C27.3566 20.3395 29.354 20.3637 31.3513 20.3978C31.8334 20.4009 32.3149 20.4296 32.7939 20.4837C33.0624 20.5363 33.3242 20.6193 33.5741 20.7311C33.7808 20.8079 34.0191 21.1853 34.012 21.3925C34.0052 21.5952 33.729 21.9658 33.5461 22.0383C32.8938 22.296 32.2099 22.3472 31.5199 22.3574C30.1423 22.3776 28.7642 22.4296 27.3874 22.4048C25.5979 22.3722 23.8095 22.28 22.0207 22.2082C20.9196 22.164 19.8187 22.1159 18.7188 22.056C18.3707 22.0528 18.0345 21.9282 17.7677 21.7033C17.6855 21.6409 17.6188 21.56 17.5731 21.4671C17.5274 21.3742 17.5039 21.2717 17.5044 21.1681C17.5162 20.9298 17.7314 20.5685 17.9407 20.53C18.2737 20.4539 18.6126 20.4071 18.9537 20.3902C21.0891 20.3776 23.2246 20.3838 25.3599 20.3838L25.3592 20.3118Z" fill="#FC7557"/>
<path d="M26.0038 25.5219C24.1045 25.4719 22.2453 25.434 20.3871 25.3684C19.7688 25.3439 19.1526 25.2817 18.5419 25.1821C18.2769 25.1198 18.0264 25.0065 17.8041 24.8488C17.7529 24.8072 17.7113 24.755 17.682 24.6957C17.6528 24.6364 17.6366 24.5716 17.6345 24.5054C17.6324 24.4394 17.6446 24.3736 17.6701 24.3125C17.6957 24.2515 17.734 24.1968 17.7825 24.152C17.9435 24.0261 18.132 23.9409 18.3325 23.903C18.8087 23.8333 19.2889 23.7939 19.7701 23.7855C22.5937 23.7586 25.418 23.6999 28.2407 23.7463C29.8895 23.7733 31.5357 23.9736 33.1824 24.1043C33.3173 24.1311 33.4481 24.1753 33.5716 24.2359C33.7547 24.3026 34.0046 24.7414 33.9204 24.9172C33.8362 25.0931 33.7167 25.2967 33.5569 25.3791C32.9909 25.6703 32.3607 25.6799 31.7409 25.6777C29.814 25.67 27.8829 25.817 26.0038 25.5219Z" fill="#FC7557"/>
<path d="M25.6342 27.3672C27.6336 27.3946 29.6332 27.4186 31.6324 27.4521C32.0458 27.4547 32.4585 27.4833 32.8683 27.5376C33.0635 27.5656 33.2482 27.6891 33.43 27.7842C33.6255 27.8866 33.8231 28.3169 33.7271 28.4987C33.6349 28.673 33.5 28.8715 33.3334 28.9481C33.0819 29.0562 32.8116 29.1135 32.5381 29.1166C30.8149 29.1601 29.0912 29.2124 27.3678 29.2079C25.6445 29.2034 23.9192 29.1709 22.1982 29.0842C20.9612 29.0218 19.7287 28.858 18.4965 28.7188C18.2924 28.693 18.1003 28.6075 17.9442 28.4727C17.8094 28.326 17.7124 28.1483 17.662 27.955C17.6194 27.8261 17.871 27.4955 17.9975 27.4793C18.4025 27.4106 18.8111 27.3661 19.2212 27.3461C21.3587 27.3329 23.4963 27.3401 25.634 27.3401L25.6342 27.3672Z" fill="#FC7557"/>
<path d="M23.4349 32.6077C21.9994 32.5553 20.5637 32.5078 19.1285 32.4475C18.6461 32.4465 18.1748 32.3019 17.7742 32.0316C17.6625 31.9535 17.5727 31.8477 17.5136 31.7244C17.4544 31.6012 17.428 31.4646 17.4367 31.328C17.4414 31.0869 17.6942 30.7919 17.9121 30.7057C18.5031 30.4717 19.1183 30.4856 19.7343 30.5123C21.5111 30.589 23.2893 30.6456 25.0638 30.7593C26.1538 30.8291 27.2384 30.9864 28.3245 31.1122C28.4578 31.141 28.5882 31.1814 28.7145 31.233C28.8363 31.2696 29.0851 31.5967 29.0329 31.7202C28.958 31.8981 28.8678 32.1182 28.7173 32.2045C28.4802 32.3362 28.2171 32.4137 27.9467 32.431C26.9231 32.4975 25.8976 32.5377 24.8724 32.5733C24.3941 32.5902 23.9146 32.5763 23.4357 32.5763L23.4349 32.6077Z" fill="#FC7557"/>
<path d="M20.6768 18.3128C20.0085 18.2705 19.2499 18.2456 18.4982 18.1637C18.1586 18.1128 17.828 18.013 17.5168 17.8672C17.4222 17.8255 17.3413 17.7579 17.2833 17.672C17.2253 17.5861 17.1925 17.4856 17.1888 17.3818C17.1722 17.1502 17.4105 16.7918 17.6169 16.7399C17.682 16.7172 17.7485 16.699 17.8161 16.6854C19.4626 16.5105 21.1109 16.4334 22.7617 16.6221C22.8981 16.6402 23.0304 16.6812 23.1533 16.7433C23.2776 16.8005 23.3861 16.8871 23.4698 16.9957C23.5534 17.1044 23.6095 17.2318 23.6334 17.3671C23.6736 17.5725 23.4268 17.9554 23.2131 18.0273C23.0239 18.1073 22.826 18.1648 22.6235 18.1986C22.0056 18.2506 21.3859 18.2736 20.6768 18.3128Z" fill="#FC7557"/>
</g>
<defs>
<clipPath id="clip0_585_611">
<rect width="25" height="30" fill="white" transform="translate(13 10)"/>
</clipPath>
</defs>
</svg>
