<svg width="35" height="25" viewBox="0 0 45 35" fill="none" xmlns="http://www.w3.org/2000/svg">
<path d="M11.8391 31.6955C12.3991 31.1018 12.7067 30.8015 12.9882 30.4733C22.0158 19.9518 31.9024 10.4794 41.8475 1.07881C42.2233 0.723766 42.6082 0.270846 43.0531 0.143928C43.5893 -0.00925959 44.464 -0.109921 44.7037 0.214979C45.0259 0.65242 45.0829 1.60334 44.8866 2.1782C44.6528 2.86201 44.0835 3.44766 43.567 3.95976C40.4845 7.01521 37.3158 9.96558 34.2874 13.0846C27.9572 19.6064 21.6673 26.1767 15.4178 32.7955C12.6794 35.6897 11.6255 35.8069 9.10569 32.7144C7.44697 30.6779 2.44108 23.8144 0.908026 21.6521C0.691532 21.3159 0.498688 20.9616 0.331236 20.5922C-0.0157764 19.9078 -0.240599 19.1543 0.446485 18.6237C1.21214 18.0331 1.75573 18.6494 2.20932 19.2912C2.66862 19.941 3.06024 20.6549 3.55201 21.2707C5.07861 23.1825 10.1903 29.68 11.8391 31.6955Z" fill="#1C1C1C"/>
</svg>
