<svg width="25" height="25" viewBox="0 0 32 24" fill="none" xmlns="http://www.w3.org/2000/svg">
<path d="M31.7798 0.166452C31.5786 -0.0961591 30.8938 0.008249 30.5599 0.10032C30.2851 0.207762 30.037 0.381919 29.8351 0.609221C29.785 0.65693 29.7354 0.704434 29.6859 0.749633C22.4917 7.29795 15.5132 13.7602 9.22226 20.8212C9.09604 20.9627 8.96298 21.096 8.77871 21.2816C8.68288 21.3776 8.57381 21.4869 8.44545 21.6177C7.65716 20.6878 5.85481 18.4933 4.40191 16.7249C3.63894 15.7965 2.97337 14.9863 2.60387 14.541C2.39944 14.2849 2.20788 14.0173 2.03002 13.7393C1.90945 13.5579 1.78459 13.37 1.65389 13.1919C1.4145 12.8653 0.968447 12.2585 0.33793 12.7255C-0.196363 13.1231 0.00679308 13.6881 0.241703 14.1382C0.269168 14.19 0.296051 14.2428 0.322736 14.2955C0.418025 14.4961 0.528805 14.6877 0.653884 14.8684C1.77136 16.3859 5.30105 21.0441 6.468 22.4237C7.40647 23.5327 8.01147 23.9755 8.62523 24C8.64198 24 8.65894 24 8.67569 24C9.37691 24 10.0925 23.417 11.0131 22.4808C15.858 17.5502 20.2336 13.1482 24.3903 9.02447C25.7168 7.70807 27.1046 6.4147 28.4469 5.16358C29.2763 4.39061 30.1337 3.59126 30.9684 2.79443C31.3747 2.4069 31.753 2.02019 31.9172 1.55795C32.056 1.16707 32.0268 0.48849 31.7798 0.166452Z" fill="#31C5B7"/>
</svg>
