<svg width="25" height="25" viewBox="0 0 25 25" fill="none" xmlns="http://www.w3.org/2000/svg">
<g clip-path="url(#clip0_572_1148)">
<path d="M5.44979 23.1373C5.60239 23.1575 5.75607 23.1662 5.90978 23.1636C6.19094 23.1648 6.4721 23.1653 6.75326 23.1652H7.25088H7.74883C7.77139 23.1652 7.79342 23.1577 7.81203 23.1438C7.83064 23.1299 7.84496 23.1102 7.85306 23.0872C7.9069 23.0839 7.96088 23.0851 8.01456 23.0906C8.56891 23.1617 8.9611 22.9668 9.21447 22.4938C9.27747 22.393 9.35448 22.3034 9.44274 22.2284C9.49187 22.181 9.54055 22.1344 9.58588 22.0846C9.7636 21.8872 9.94457 21.6927 10.1252 21.4982C10.5216 21.0717 10.9316 20.6309 11.3034 20.1646C13.848 16.9731 16.7038 13.5697 20.0341 9.75986C20.523 9.20061 21.0121 8.6416 21.5015 8.08283C22.5096 6.93165 23.552 5.74111 24.5731 4.56576C24.8448 4.25343 24.9765 3.90712 24.9549 3.56435C24.9332 3.21731 24.7556 2.8884 24.4412 2.61316C24.1733 2.3788 23.9023 2.14847 23.6315 1.91814C23.4478 1.76198 23.2643 1.6054 23.0812 1.44838C22.9228 1.31204 22.7653 1.17449 22.6086 1.03579C22.3217 0.783657 22.025 0.523005 21.7249 0.277507C21.3035 -0.0676346 21.051 -0.0585227 20.6447 0.316241C20.5904 0.366359 20.5417 0.420873 20.4946 0.473717C20.4761 0.494333 20.4575 0.515182 20.4388 0.535562L19.1443 1.93887C18.2443 2.91479 17.3437 3.89029 16.4428 4.86541C12.6668 8.95743 9.1326 13.306 5.86122 17.8853C5.57641 18.2813 5.37566 18.7411 5.27348 19.2318C5.13837 19.862 4.97707 20.4977 4.82121 21.1127C4.76265 21.3436 4.7045 21.5746 4.64675 21.8054C4.60193 21.953 4.58693 22.1092 4.60284 22.2635C4.61873 22.4179 4.66512 22.5667 4.7388 22.6996C4.82125 22.8243 4.9275 22.928 5.05025 23.0036C5.17299 23.0791 5.3093 23.1248 5.44979 23.1373ZM7.88459 21.7339L6.93241 21.8822L6.15076 20.8002L6.3375 19.6391L7.88459 21.7339ZM18.5192 4.60119L20.4697 7.20072L8.61099 21.1581L6.77285 18.6371C10.4375 13.7163 14.3595 9.03014 18.5194 4.6018L18.5192 4.60119ZM19.2743 3.74813L21.3302 1.62905L23.4742 3.8275C23.1198 4.29756 22.7409 4.74493 22.3393 5.16732C22.0037 5.53462 21.6579 5.91292 21.3291 6.33034L19.2743 3.74813Z" fill="#4A4A4A"/>
<path d="M0.0868187 19.4187C0.130039 19.5594 0.184908 19.6955 0.250738 19.8254C0.690194 20.6324 0.810722 21.3168 0.642026 22.0442C0.591799 22.3042 0.570192 22.5698 0.577674 22.8354C0.576913 22.9224 0.576256 23.0094 0.573322 23.096C0.558883 23.299 0.59103 23.5027 0.666839 23.6887C0.742647 23.8748 0.859747 24.0373 1.00757 24.1617C1.32908 24.4471 1.68665 24.6805 2.06921 24.8547C2.24135 24.9247 2.42353 24.9608 2.60725 24.9613C3.04293 24.9464 3.45932 24.762 3.78117 24.4415C3.98388 24.2556 4.18703 23.9812 3.95507 23.5038C3.94179 23.4765 3.91941 23.4556 3.89249 23.4455C3.86558 23.4356 3.83617 23.4371 3.81029 23.4499C3.73659 23.4863 3.66517 23.5223 3.59528 23.5576C3.44462 23.6337 3.30181 23.7055 3.15779 23.7698C2.74072 23.955 2.34606 23.8781 1.91519 23.5282C1.61986 23.2882 1.63812 22.9985 1.70356 22.55L1.70682 22.5274C1.79958 21.9925 1.84886 21.4497 1.8541 20.9053C1.83671 19.9463 1.06062 19.1093 0.123333 19.0393C0.104478 19.0381 0.0856468 19.0421 0.0685611 19.0509C0.0514755 19.0596 0.0366885 19.0729 0.0255181 19.0895C0.0144068 19.1063 0.00738963 19.1259 0.00516417 19.1464C0.0029387 19.167 0.00555824 19.1878 0.0127803 19.2069C0.0399542 19.2801 0.0639926 19.3509 0.0868187 19.4187Z" fill="#4A4A4A"/>
</g>
<defs>
<clipPath id="clip0_572_1148">
<rect width="25" height="25" fill="white"/>
</clipPath>
</defs>
</svg>
