<svg width="50" height="50" viewBox="0 0 50 50" fill="none" xmlns="http://www.w3.org/2000/svg">
<rect x="0.5" y="0.5" width="49" height="49" rx="5.5" stroke="#1C1C1C"/>
<g clip-path="url(#clip0_318_326)">
<path d="M11.0891 39.875C10.46 39.8683 10.1303 39.5462 10.1183 38.9916C10.1164 38.8351 10.1362 38.6789 10.1771 38.5277C10.6383 36.7767 11.1265 35.0325 11.561 33.2745C11.7501 32.4219 12.1623 31.6353 12.755 30.9962C14.3716 29.2919 15.9619 27.5621 17.5974 25.8768C21.8998 21.4434 26.4119 17.2322 31.0425 13.1479C32.0479 12.2611 33.0371 11.3546 34.0657 10.4957C34.6778 9.9848 34.9122 9.99647 35.5304 10.5266C36.4122 11.2832 37.2619 12.078 38.1171 12.8655C38.5776 13.2893 39.019 13.7339 39.4724 14.1654C40.0593 14.7242 40.058 15.3211 39.4984 15.9139C38.608 16.8572 37.7411 17.8223 36.8494 18.7641C36.5286 19.1031 36.1581 19.3941 35.8224 19.7193C30.569 24.8092 25.3165 29.9001 20.065 34.9918C19.2312 35.7996 18.3965 36.6068 17.542 37.3922C17.3205 37.581 17.0666 37.7274 16.7928 37.8245C15.1502 38.4599 13.5033 39.084 11.8521 39.6967C11.6025 39.7748 11.3475 39.8344 11.0891 39.875ZM15.6586 34.4077L33.3525 17.3116C32.9656 16.947 32.5971 16.5996 32.164 16.1911C26.0869 21.661 20.5584 27.6594 14.8132 33.4915L15.6586 34.4077ZM17.3042 36.1077C23.2104 30.3697 29.1388 24.8065 34.8007 18.9867L34.2831 18.3238C28.1763 23.8537 22.3678 29.5742 16.4162 35.1144L17.3042 36.1077ZM14.014 32.757C19.66 26.7776 25.3267 20.9879 31.2705 15.4121L30.6602 14.867C24.6321 20.2846 18.9063 25.9801 13.4192 31.9458C13.5609 32.1236 13.6601 32.2411 13.7513 32.365C13.8315 32.4731 13.9019 32.5881 14.0145 32.757H14.014ZM38.383 15.2351C37.3983 13.9705 35.2863 11.8905 34.6619 11.5613L31.8732 14.0022L36.0993 17.7531C36.8737 16.9 37.6185 16.0785 38.3835 15.2351H38.383ZM12.5972 32.7142C12.3798 33.8387 12.1833 34.8186 12.0084 35.8025C11.9869 35.9526 12.0232 36.1053 12.1099 36.2294C12.5115 36.7334 12.9378 37.2176 13.3712 37.7276L15.9696 36.7288L12.5972 32.7142Z" fill="black"/>
</g>
<defs>
<clipPath id="clip0_318_326">
<rect width="30" height="30" fill="white" transform="translate(10 10)"/>
</clipPath>
</defs>
</svg>
