<svg width="40" height="40" viewBox="0 0 50 50" fill="none" xmlns="http://www.w3.org/2000/svg">
<circle cx="25" cy="25" r="25" fill="#E8F7F6"/>
<path d="M24.0662 40C20.5635 40 17.9857 38.6932 16.333 36.0797C16.111 35.7187 16 35.3703 16 35.0342C16 34.5488 16.1912 34.1319 16.5735 33.7834C16.9559 33.4225 17.3875 33.2421 17.8685 33.2421C18.3742 33.2421 18.8552 33.5159 19.3116 34.0635C19.9653 34.86 20.4586 35.3703 20.7916 35.5943C21.5933 36.1419 22.6848 36.4157 24.0662 36.4157C26.1999 36.4157 27.9698 35.5943 29.3759 33.9515C30.7202 32.3833 31.3924 30.4978 31.3924 28.295C31.3924 26.4779 31.0964 25.0031 30.5044 23.8706C29.7397 22.4393 28.5618 21.7237 26.9708 21.7237C25.6511 21.7237 24.5719 21.9042 23.7332 22.2651C23.0672 22.5513 22.395 23.0429 21.7167 23.7399L19.7001 25.9614C19.1574 26.5215 18.6024 26.8015 18.0351 26.8015C17.5417 26.8015 17.1224 26.6273 16.777 26.2788C16.4317 25.9179 16.259 25.4885 16.259 24.9907C16.259 24.7418 16.3577 23.6341 16.555 21.6677C16.9744 17.7474 17.184 15.1711 17.184 13.939C17.184 13.5034 17.073 13.0305 16.851 12.5202C16.6414 11.9975 16.5365 11.6117 16.5365 11.3628C16.5365 10.6036 17.184 10.224 18.4791 10.224C18.7257 10.224 19.0957 10.2489 19.5891 10.2987C20.0948 10.336 20.471 10.3547 20.7176 10.3547C21.433 10.3547 22.506 10.3298 23.9367 10.28C25.3674 10.2302 26.4404 10.2054 27.1558 10.2054C27.4888 10.2054 27.9945 10.2178 28.6728 10.2427C29.3512 10.2676 29.8569 10.28 30.1899 10.28C30.4242 10.28 30.7634 10.2365 31.2074 10.1493C31.6514 10.0498 31.9844 10 32.2064 10C32.6874 10 33.1129 10.1805 33.483 10.5414C33.853 10.9023 34.038 11.3192 34.038 11.7922C34.038 13.1861 32.5764 13.883 29.6534 13.883C29.271 13.883 28.79 13.8706 28.2103 13.8457C27.6306 13.8208 27.2791 13.8083 27.1558 13.8083L24.0292 13.8643L20.9026 13.9577C20.9026 14.5177 20.6745 16.5899 20.2181 20.1742C21.9078 18.8177 24.1587 18.1394 26.9708 18.1394C29.6842 18.1394 31.7562 19.2097 33.187 21.3503C34.3957 23.1674 35 25.4823 35 28.295C35 31.6553 34.0256 34.4244 32.0769 36.6024C30.0542 38.8675 27.384 40 24.0662 40Z" fill="#31C5B7"/>
</svg>
