<svg width="259" height="344" viewBox="0 0 335 420" fill="none" xmlns="http://www.w3.org/2000/svg">
<path d="M165.991 293.94C143.782 302.095 121.238 305.953 97.7795 298.05C82.9278 293.043 72.5194 283.107 66.3829 268.452C61.2771 256.255 63.485 248.894 75.0333 242.74C93.0694 233.132 111.19 223.629 129.568 214.69C147.547 205.944 165.858 197.878 184.091 189.657C198.792 183.034 206.403 186.838 208.169 203.463C209.731 216.362 209.651 229.379 207.931 242.19C204.01 267.941 189.824 284.25 165.991 293.94ZM102.174 284.505C119.112 243.183 152.081 231.246 193.516 231.831C192.843 223.194 192.17 214.584 191.298 203.403L74.5551 256.059C80.1035 270.797 88.5285 280.7 102.174 284.505ZM115.339 286.838C140.567 290.682 186.098 275.884 189.13 247.541C165.999 237.689 122.868 260.36 115.339 286.838Z" fill="#FFC73A"/>
<path d="M258.816 147.285C263.954 159.663 257.118 173.505 244.427 177.914C229.168 183.216 209.65 177.06 199.257 163.916C195.532 159.204 196.285 154.692 199.26 150.536C209.068 136.837 222.33 130.352 239.259 132.601C248.635 133.851 254.985 139.606 258.816 147.285ZM216.397 156.714L216.926 159.206C220.123 161.323 223.735 162.684 227.49 163.187C231.245 163.691 235.045 163.324 238.608 162.114C241.155 161.281 242.761 157.613 244.801 155.247C241.959 153.408 238.725 149.646 236.35 150.094C229.515 151.386 223.024 154.385 216.396 156.712L216.397 156.714Z" fill="#43C5E6"/>
<path d="M24.8847 289.867C21.5358 290.917 17.9703 291.117 14.4953 290.448C11.0203 289.78 7.73987 288.263 4.9362 286.029C-2.67601 280.196 -3.32818 271.743 -1.66785 263.223C1.46197 247.122 11.0345 236.028 25.3322 229.186C31.2421 226.358 35.6699 227.95 37.0244 234.279C39.6443 245.795 41.3825 257.484 42.2234 269.239C42.7464 278.3 37.3754 284.809 24.8847 289.867ZM25.6698 243.021C16.9502 250.134 12.6938 257.42 11.746 266.25C11.2885 270.524 10.3288 275.372 16.7733 276.433C23.0507 277.467 28.5832 274.307 28.4764 268.298C28.3312 260.226 26.7609 252.155 25.6675 243.015L25.6698 243.021Z" fill="#43C5E6"/>
<path d="M53.1789 182.739C44.7584 179.699 37.0116 176.95 29.3004 174.096C26.0653 172.899 22.8526 171.6 19.7255 170.128C16.3396 168.535 12.4651 166.723 14.0947 161.966C15.739 157.162 19.7104 158.431 23.3536 159.517C31.2778 161.879 39.1878 164.301 47.1524 166.502C51.7935 167.784 56.5358 168.635 61.2197 169.769C69.3344 171.725 73.5493 177.387 70.7772 185.223C66.8572 195.79 62.2393 206.062 56.9551 215.969C54.804 220.153 50.4079 222.818 45.3411 220.276C39.8974 217.545 39.6601 212.273 41.5572 207.576C44.8272 199.489 48.9051 191.76 53.1789 182.739Z" fill="#FFC73A"/>
<path d="M155.695 142.016C161.823 142.522 166.574 142.699 171.268 143.363C175.793 143.788 180.261 144.776 184.572 146.303C185.715 146.953 186.692 147.872 187.42 148.982C188.148 150.092 188.604 151.361 188.75 152.678C188.704 154.746 185.826 158.479 184.26 158.41C171.663 157.864 158.95 157.42 146.557 155.149C141.315 154.188 139.492 147.295 141.928 142.232C148.781 127.988 156.178 114.014 163.816 100.199C164.675 98.6452 168.668 97.9178 170.771 98.5141C171.923 98.8418 173.125 103.03 172.613 104.976C171.566 108.926 169.372 112.537 167.638 116.28C163.8 124.553 159.962 132.819 155.695 142.016Z" fill="#FFC73A"/>
<path d="M-34.6275 229.839C-25.3979 287.987 5.64003 329.604 57.6576 353.548C59.0079 354.164 60.3764 354.77 61.7263 355.335C89.1192 366.896 118.025 368.966 140.434 369.434C150.057 369.647 193.42 356.515 203.921 350.048C266.315 311.593 293.866 254.329 281.788 183.118C279.346 169.201 275.308 155.594 269.757 142.578C256.848 111.846 229.187 81.4662 191.961 65.6933C188.332 64.5539 184.678 63.3264 181.143 62.1365C173.481 59.5624 165.558 56.8955 157.685 55.0905C97.5109 41.2226 49.5572 61.2742 8.69687 99.3925C-28.3004 133.897 -42.8735 177.789 -34.6275 229.839ZM15.5492 115.078C50.2974 79.0256 91.4988 57.8376 144.478 67.4358C154.167 69.1961 181.508 77.4586 185.761 78.636L186.03 78.7053L186.28 78.8267C209.938 89.6378 242.127 114.084 255.748 147.445C261.612 161.693 265.712 176.6 267.951 191.817C274.067 235.677 261.003 275.049 227.999 312.155C194.746 350.584 125.688 355.141 105.065 351.037C82.0918 346.073 60.0471 337.135 39.8949 324.613C7.95946 304.188 -13.9663 264.693 -19.3322 222.382C-21.7429 202.818 -19.8635 183.039 -13.8303 164.479C-7.79715 145.92 2.23861 129.045 15.5492 115.078Z" fill="#FFC73A"/>
</svg>
