<svg width="41" height="30" viewBox="0 0 61 50" fill="none" xmlns="http://www.w3.org/2000/svg">
<g clip-path="url(#clip0_951_645)">
<path d="M60.5881 23.6602C60.4541 21.1366 60.347 18.5679 60.2431 16.0842C60.1419 13.6655 60.0376 11.1643 59.908 8.70521C59.7207 5.13417 57.897 2.53261 54.6347 1.18171C53.4829 0.705017 52.0651 0.45294 50.3039 0.410406C45.6384 0.298642 40.8945 0.246981 36.3066 0.196755C34.6734 0.178807 33.0405 0.160023 31.4078 0.140415C31.3667 0.10607 31.3151 0.0871959 31.2617 0.0871683H27.4586C24.3682 0.0871683 21.278 0.0880903 18.1882 0.0895986C17.6227 0.0895986 17.0554 0.0883099 16.4901 0.0867262C14.7906 0.0808439 13.033 0.075962 11.3044 0.13931C8.94439 0.225509 7.12712 0.69039 5.58581 1.60261C2.46431 3.45057 0.799222 6.0884 0.636779 9.44338C0.5512 11.2101 0.522371 13.0071 0.494664 14.7451L0.476568 15.8332C0.451542 17.2919 0.425395 18.7503 0.398135 20.2083C0.310321 25.0129 0.219381 29.981 0.183407 34.869C0.168883 36.8147 0.266303 39.1167 1.09729 41.4375C2.32622 44.8703 4.59305 47.0896 8.02738 48.2222C11.2226 49.2511 14.5546 49.7787 17.9076 49.786C26.242 49.895 34.984 49.9466 45.2722 49.9466H47.2707C49.1615 49.9789 51.0489 49.7722 52.8889 49.3308C57.1071 48.2382 59.607 45.6203 60.3189 41.5493C60.5452 40.1683 60.7025 38.7765 60.7899 37.3792C61.098 33.1394 60.867 28.8427 60.6431 24.6871L60.5881 23.6602ZM21.6123 46.0887C18.0021 46.0776 14.1446 45.9394 10.3968 45.0086C8.88875 44.6344 7.81019 44.1959 6.94837 43.6027L25.5478 26.2832L26.067 26.8489C26.5845 27.4129 27.1188 27.995 27.6584 28.5719C29.2203 30.2423 30.7526 30.3792 32.4799 29.0032C33.1866 28.4405 33.8581 27.8038 34.5074 27.1903C34.7532 26.9572 35.0016 26.7226 35.2537 26.4891L53.4578 45.0939C52.8286 45.6176 52.068 45.7274 51.2667 45.843L51.0366 45.8765C50.1759 45.9923 49.308 46.0461 48.4397 46.0371L43.3479 46.0556C36.2232 46.0826 28.8572 46.1108 21.6123 46.0887ZM50.0342 7.42354C47.3105 9.91336 44.4942 12.4877 41.8086 15.1114C39.1286 17.7295 36.5012 20.4733 33.9599 23.1276C32.9082 24.2262 31.8223 25.3606 30.75 26.4674L8.12994 4.00469C8.29187 3.96109 8.45252 3.91707 8.6119 3.87256C9.22861 3.70266 9.81112 3.5417 10.4062 3.42338C13.3648 2.83514 16.411 2.91514 19.3571 2.99365C20.0151 3.01085 20.6729 3.02786 21.3305 3.03872C22.3311 3.05456 23.3495 3.08833 24.334 3.12114C25.1891 3.14942 26.0733 3.17883 26.9441 3.19625C29.3928 3.24528 31.8415 3.29234 34.2904 3.33745C39.5838 3.43745 45.057 3.54118 50.4393 3.67195C51.1961 3.71424 51.9482 3.82148 52.6872 3.99254C52.9776 4.05114 53.2786 4.11127 53.5776 4.16376V4.17128C52.4003 5.26064 51.1977 6.36017 50.0338 7.42442L50.0342 7.42354ZM11.9372 34.7489C9.66857 36.933 7.32532 39.1896 5.05938 41.4955C4.11824 39.2473 3.63046 37.402 3.48522 35.5518C3.08302 30.419 3.25016 25.3099 3.45707 20.517C3.55158 18.3312 3.58935 16.1081 3.62599 13.9581C3.65102 12.4966 3.67694 10.9852 3.72028 9.50105C3.76497 7.92684 4.28492 6.82225 5.44772 5.846L23.1221 23.4269C19.524 27.443 15.6673 31.1568 11.9358 34.7507L11.9372 34.7489ZM56.494 41.1115C56.4113 41.5624 56.3007 42.0077 56.1628 42.4443C56.1132 42.6138 56.0636 42.7837 56.0169 42.9534L55.9456 42.9774L37.2106 24.4916C43.6871 17.7268 49.8293 11.9575 55.9727 6.86698C55.9991 6.98666 56.0259 7.10315 56.0522 7.21673C56.1617 7.62899 56.2343 8.05023 56.2694 8.47566C56.4765 12.7571 56.6455 16.9824 56.7695 20.1856C56.8859 23.1914 56.9851 26.157 57.0647 29.0007C57.1641 32.6013 57.1753 36.857 56.4926 41.1124L56.494 41.1115Z" fill="black"/>
</g>
<defs>
<clipPath id="clip0_951_645">
<rect width="61" height="50" fill="white"/>
</clipPath>
</defs>
</svg>
