<svg width="50" height="50" viewBox="0 0 50 50" fill="none" xmlns="http://www.w3.org/2000/svg">
<rect x="0.5" y="0.5" width="49" height="49" rx="5.5" stroke="#1C1C1C"/>
<g clip-path="url(#clip0_318_338)">
<path d="M12.5011 33.2243C12.6166 32.4863 12.9253 31.8282 13.212 31.2817C13.6957 30.3597 14.3945 29.5742 15.0705 28.8149C15.1809 28.6906 15.2911 28.5663 15.4011 28.4418C16.7133 26.9478 18.0704 25.4044 19.6177 24.0174C20.7368 23.0144 22.03 22.6304 23.5701 22.8431C23.6755 22.8578 23.7812 22.871 23.8871 22.8842C24.4923 22.9603 25.0642 23.0321 25.5856 23.3312C25.7084 23.3963 25.8409 23.4414 25.9781 23.4648C26.0601 23.4796 26.1442 23.4777 26.2254 23.4593C26.3065 23.4409 26.3832 23.4064 26.4505 23.3577C26.5303 23.3031 26.5982 23.2332 26.6503 23.1521C26.7024 23.0709 26.7374 22.9802 26.7536 22.8853C26.7843 22.7006 26.766 22.511 26.7005 22.3354C26.635 22.1599 26.5244 22.0042 26.3798 21.8838C25.9244 21.4758 25.3649 21.1994 24.7621 21.0849C24.1016 20.9472 23.4335 20.8481 22.7614 20.7879C21.2741 20.6516 19.9805 21.0355 18.9164 21.9296C17.8834 22.7811 16.8943 23.6839 15.9532 24.6346C14.962 25.656 14.0163 26.7514 13.1018 27.8107L12.6978 28.2784C11.9021 29.2074 11.2441 30.2442 10.7435 31.3574C10.3377 32.2479 10.117 33.2103 10.0945 34.1873V34.1902C10.0908 36.2295 10.8705 37.771 12.412 38.7721C13.6106 39.5504 14.8524 39.9404 16.1239 39.9404C16.9032 39.9358 17.6759 39.7971 18.4075 39.5307C18.8825 39.3621 19.306 39.2001 19.702 39.0353C21.0971 38.4551 22.3311 37.5171 23.7028 35.9945C24.5036 35.1059 25.2914 34.1802 26.0538 33.2848C26.441 32.8299 26.8292 32.3759 27.2184 31.9229C27.3483 31.7724 27.486 31.6227 27.6192 31.4777C27.8485 31.2285 28.0857 30.9706 28.2956 30.6958C28.512 30.424 28.6666 30.1091 28.7493 29.7727C28.7749 29.6453 28.7657 29.5134 28.7227 29.3907C28.6796 29.268 28.6043 29.1591 28.5044 29.0749C28.3964 28.9791 28.2649 28.9131 28.1231 28.8838C27.9812 28.8544 27.834 28.8625 27.6963 28.9074C27.4432 28.9912 27.2096 29.1244 27.0093 29.2991C26.7671 29.5261 26.5402 29.7687 26.3302 30.0251L26.2349 30.1362C25.7434 30.707 25.253 31.2785 24.7637 31.851C23.9394 32.8138 23.0869 33.8092 22.2402 34.7811C20.9055 36.3126 19.2418 37.2542 17.2933 37.5797C16.6079 37.7067 15.9027 37.6818 15.2282 37.5069C13.2307 36.9538 12.4207 35.8869 12.4323 33.8246C12.4382 33.6511 12.4571 33.4781 12.4889 33.3074L12.5011 33.2243Z" fill="black"/>
<path d="M36.48 10.2135C35.5827 10.0029 34.6688 10.007 33.7847 10.0126L33.5744 10.0135C32.5621 10.0174 31.6168 10.3225 30.6846 10.9461C29.1717 11.9373 27.7774 13.096 26.5285 14.3997C25.6899 15.2884 24.8125 16.2636 23.8469 17.3808C23.3742 17.9273 22.9383 18.6303 23.29 19.6957C23.2953 19.7115 23.3037 19.7261 23.3147 19.7386C23.3258 19.7511 23.3392 19.7613 23.3543 19.7686C23.3695 19.7759 23.386 19.7801 23.4028 19.781C23.4196 19.7819 23.4364 19.7795 23.4522 19.774C24.2971 19.4729 24.9028 19.1197 25.4149 18.6285L25.4425 18.6019C26.0865 17.9841 26.7527 17.3451 27.3726 16.6822C28.8827 15.0675 30.242 13.8602 31.6502 12.8822C32.3457 12.3839 33.1816 12.1152 34.0394 12.1141C34.7016 12.102 35.3635 12.1571 36.0143 12.2788C36.9775 12.4713 38.0224 13.1734 38.0644 14.566C38.0993 15.707 37.8671 16.585 37.3333 17.3295C37.116 17.6325 36.9014 17.9383 36.6868 18.2441C36.0036 19.2177 35.2972 20.2239 34.5064 21.1269C33.5112 22.263 32.1394 23.6882 30.3494 24.6349C28.8825 25.4112 27.2163 25.7388 25.5617 25.5764C24.8722 25.5316 24.2201 25.2492 23.7182 24.778C23.5028 24.5719 23.2716 24.3828 23.0267 24.2122C22.6929 23.9847 22.3033 23.9953 22.0571 24.239C21.9258 24.3539 21.8372 24.5091 21.8054 24.6799C21.7736 24.8507 21.8005 25.027 21.8817 25.1809C22.0071 25.4509 22.1571 25.709 22.33 25.9519C22.8925 26.7024 23.7014 27.2039 24.8035 27.4847C25.3073 27.6113 25.8254 27.6742 26.3451 27.6719C27.1454 27.6571 27.9411 27.5474 28.7152 27.3454C30.2948 26.9665 31.7553 26.129 33.1802 24.7851C35.5856 22.5164 37.5027 19.8717 38.9041 17.8213C39.5333 16.8998 39.8806 15.8175 39.904 14.7048C39.9311 13.8222 39.8598 12.6954 39.062 11.8105C38.298 10.9644 37.454 10.442 36.48 10.2135Z" fill="black"/>
</g>
<defs>
<clipPath id="clip0_318_338">
<rect width="30" height="30" fill="white" transform="translate(10 10)"/>
</clipPath>
</defs>
</svg>
