<svg width="25" height="25" viewBox="0 0 25 25" fill="none" xmlns="http://www.w3.org/2000/svg">
<g clip-path="url(#clip0_572_1140)">
<path d="M8.01616 3.42127C8.22289 3.60749 8.45828 3.7318 8.70563 3.78543C9.13728 3.85796 9.57183 3.89648 10.007 3.90078C10.7109 3.91895 11.4147 3.93935 12.1185 3.96194C13.9112 4.01645 15.7605 4.07276 17.5878 4.07276C17.7222 4.07276 17.8565 4.07246 17.9906 4.07186C19.4311 4.06508 20.8937 3.95727 22.3083 3.8529C22.7463 3.82067 23.1841 3.78933 23.6218 3.75891C23.8137 3.73358 24.002 3.67459 24.1819 3.58347C24.2836 3.5395 24.3882 3.4931 24.507 3.45078C24.5246 3.44441 24.5406 3.43285 24.5542 3.41701C24.5676 3.40115 24.5781 3.38144 24.5849 3.35938C24.5917 3.33731 24.5945 3.3135 24.5932 3.28978C24.5918 3.26608 24.5863 3.2431 24.5771 3.22263C24.2741 2.55215 23.8963 2.48709 23.5927 2.43468C23.5489 2.4273 23.5062 2.4196 23.4651 2.41057C21.6521 2.00665 20.0132 1.67142 18.3195 1.66194C17.7515 1.65877 17.1841 1.65139 16.6158 1.64401C15.7502 1.63272 14.8551 1.62216 13.9745 1.62532C12.3599 1.63331 10.7399 1.66358 9.15905 1.71569C8.79784 1.72404 8.44073 1.81754 8.10471 1.99174C8.00704 2.04787 7.92305 2.13834 7.86203 2.25313C7.801 2.36793 7.7653 2.50261 7.75883 2.64236C7.74391 2.79063 7.75998 2.94144 7.8053 3.07865C7.85063 3.21585 7.92351 3.33429 8.01616 3.42127Z" fill="#4A4A4A"/>
<path d="M24.9091 13.4963C24.8709 13.3533 24.8348 13.2182 24.7378 13.165C24.5122 13.0373 24.2739 12.9533 24.03 12.9156C23.5329 12.8503 23.0358 12.7786 22.5392 12.7068C21.2662 12.5227 19.9504 12.3325 18.6504 12.2606C16.2248 12.1266 13.7569 12.0674 11.3703 12.0105C10.5881 11.9918 9.80596 11.9723 9.02401 11.9518C8.73749 11.9348 8.45109 11.9887 8.17973 12.1107C8.07924 12.176 7.99012 12.268 7.91796 12.3807C7.84579 12.4935 7.79214 12.6245 7.76035 12.7658C7.71887 12.9543 7.73376 13.1565 7.80196 13.3312C7.87016 13.5058 7.98656 13.6396 8.12735 13.7054C8.46165 13.8817 8.81238 13.9987 9.17024 14.0531C10.5052 14.1914 11.8639 14.3016 13.1778 14.4081L13.6202 14.4439C15.0712 14.5619 16.4758 14.6209 17.8493 14.6209C19.6551 14.6209 21.4069 14.5188 23.136 14.3141C23.2253 14.3036 23.3152 14.2945 23.4055 14.2855C23.8966 14.2364 24.4047 14.1857 24.9035 13.8713C24.9315 13.8537 24.953 13.8223 24.9635 13.784C24.9739 13.7456 24.9724 13.7033 24.9594 13.6664C24.9404 13.6109 24.9237 13.5541 24.9091 13.4963Z" fill="#4A4A4A"/>
<path d="M24.3495 21.9662C24.3067 21.9494 24.2667 21.9304 24.2285 21.9125C24.1449 21.8667 24.0568 21.8369 23.9668 21.8239C23.5362 21.7866 23.1056 21.7451 22.6749 21.7034C21.601 21.6001 20.4905 21.4926 19.3951 21.4558C16.2177 21.3483 12.9863 21.2963 9.86155 21.2459L9.41797 21.2388C9.09091 21.2366 8.76729 21.3263 8.46892 21.5024C8.3632 21.5649 8.2727 21.6646 8.20741 21.7903C8.14213 21.9161 8.10459 22.0632 8.09895 22.2153C8.08886 22.3772 8.11255 22.5397 8.16748 22.6853C8.22242 22.831 8.30652 22.9542 8.41076 23.0417C8.58873 23.1903 8.78843 23.2884 8.997 23.3296L9.23863 23.3725C9.78083 23.4823 10.3271 23.5537 10.8752 23.5861C11.8467 23.6203 12.8344 23.6335 13.7895 23.6463C14.4504 23.6552 15.1338 23.6644 15.8056 23.6804C16.0113 23.6853 16.2167 23.6878 16.422 23.6878C18.6842 23.6878 20.9238 23.4033 22.844 23.1183L23.0636 23.0863C23.3756 23.0411 23.6983 22.9947 24.0141 22.923C24.3361 22.85 24.4767 22.5715 24.4321 22.0947C24.4292 22.065 24.4199 22.0372 24.4052 22.0144C24.3905 21.9915 24.3713 21.9748 24.3495 21.9662Z" fill="#4A4A4A"/>
<path d="M1.97166 19.9722C1.0485 19.8668 0.500106 20.6323 0.0855413 21.393C0.0762344 21.41 0.0696539 21.4293 0.0662228 21.4496C0.0627917 21.4701 0.0625741 21.4912 0.0655789 21.5118C0.0839275 21.6401 0.101802 21.7589 0.118775 21.8714C0.153178 22.0963 0.181968 22.2906 0.20456 22.4871C0.247228 22.9353 0.370111 23.3639 0.563155 23.7378C0.7562 24.1118 1.01393 24.4204 1.31523 24.6384C1.60563 24.8395 1.92915 24.9439 2.25744 24.9427C2.5969 24.9401 2.93155 24.8371 3.23655 24.6415C3.46202 24.5127 3.66349 24.321 3.82697 24.0799C3.99045 23.8387 4.11206 23.5538 4.18335 23.2448C4.23961 22.9398 4.24467 22.6226 4.19819 22.3149C4.15171 22.0073 4.05482 21.7165 3.91421 21.463C3.7018 21.0321 3.41538 20.6729 3.07801 20.414C2.74062 20.1552 2.3617 20.0037 1.97166 19.9722Z" fill="#4A4A4A"/>
<path d="M2.14348 5.87771C2.19876 5.88313 2.25348 5.88579 2.30761 5.8857C2.74373 5.89992 3.17014 5.71545 3.51446 5.36364C3.85877 5.01183 4.09976 4.51438 4.19648 3.95572C4.4029 2.77213 4.14143 1.70798 3.44051 0.878315C2.7709 0.085845 1.97261 -0.0674665 1.13156 0.435847C0.957217 0.546219 0.788256 0.670653 0.625615 0.808437C0.53995 0.877564 0.449451 0.950597 0.350369 1.02605C0.334058 1.03858 0.320279 1.05605 0.310165 1.07701C0.300049 1.09797 0.293909 1.12182 0.292246 1.14654C0.275962 1.40693 0.254516 1.65858 0.233759 1.90075C0.180537 2.40135 0.1571 2.90665 0.16368 3.41204C0.208748 4.73343 1.04131 5.77003 2.14348 5.87771ZM1.82697 1.78343C1.99975 1.852 2.15908 1.96915 2.29389 2.12676C2.4287 2.28436 2.53575 2.47864 2.6076 2.69608C2.75129 3.09638 2.73616 3.41039 2.56001 3.68403C2.42045 3.90105 2.21873 3.95647 1.92446 3.85813C1.79193 3.82245 1.67129 3.7329 1.57967 3.6022C1.48804 3.47147 1.43006 3.30622 1.41392 3.12982C1.34787 2.58448 1.47926 2.15482 1.82697 1.78343Z" fill="#4A4A4A"/>
<path d="M2.67497 10.6416H2.66108C1.26039 10.6598 0.431281 11.6472 0.386212 13.35C0.376808 13.6474 0.413331 13.9442 0.493584 14.2225C0.573837 14.5009 0.696163 14.755 0.853188 14.9696C1.04733 15.2238 1.27857 15.4239 1.53303 15.558C1.78749 15.692 2.05994 15.7572 2.33404 15.7497H2.34676C2.62085 15.7556 2.89307 15.6892 3.14726 15.5544C3.40147 15.4196 3.6325 15.2193 3.82669 14.9651C3.99884 14.7367 4.13404 14.465 4.2242 14.1663C4.31436 13.8676 4.35761 13.5481 4.35135 13.2268C4.32726 11.7967 3.57669 10.6416 2.67497 10.6416ZM2.48451 13.3624H1.94434C1.80902 12.9257 1.87682 12.6226 2.17659 12.3232C2.43806 12.5161 2.58428 12.7844 2.48451 13.3624Z" fill="#4A4A4A"/>
</g>
<defs>
<clipPath id="clip0_572_1140">
<rect width="25" height="25" fill="white"/>
</clipPath>
</defs>
</svg>
