<svg width="25" height="22" viewBox="0 0 25 22" fill="none" xmlns="http://www.w3.org/2000/svg">
<g clip-path="url(#clip0_350_754)">
<path d="M3.91198 16.6761C4.30026 16.9361 4.35109 17.125 4.14829 17.555C3.72402 18.4551 3.2346 19.5218 2.82153 20.6127C2.71147 20.9032 2.70358 21.4706 2.94165 21.6984C3.13647 21.885 3.46696 21.9105 3.78657 21.9351C3.88107 21.9424 3.97028 21.9493 4.05431 21.9602C4.0679 21.962 4.08158 21.9628 4.09528 21.9628C4.21153 21.952 4.32348 21.9143 4.42184 21.8528L4.46333 21.8315C4.81361 21.6545 5.16424 21.478 5.5152 21.302C6.51696 20.7988 7.55275 20.2781 8.56136 19.7469L8.5708 19.742C9.7845 19.1033 10.9299 18.4997 12.3364 18.765C12.3951 18.7741 12.4547 18.7765 12.514 18.7717C12.5328 18.7708 12.5518 18.77 12.5703 18.7698C15.9118 18.7401 18.4866 18.0622 20.6734 16.6368C24.0227 14.4533 25.5266 11.3286 24.7994 8.0639C24.1261 5.04119 22.7986 3.16039 20.4953 1.9658C18.1536 0.751546 15.5148 0.0538382 13.0651 0.0012207C13.0642 0.00137211 13.0633 0.00137211 13.0624 0.0012207C10.0387 0.0128797 7.51261 0.49974 5.11281 1.53374C2.20369 2.78693 0.608561 4.58738 0.236466 7.03789C0.076069 8.03475 0.0569367 9.04842 0.179616 10.0504C0.582417 13.0972 1.80337 15.2645 3.91198 16.6761ZM4.93615 19.1397C5.13844 18.4345 5.32931 17.7684 5.56738 17.1303C5.94082 16.1302 5.38968 15.5682 4.86821 15.1904C4.07505 14.6159 3.27277 13.9546 2.7763 13.0146C1.49414 10.587 1.31966 8.31288 2.24248 6.06229C2.743 4.84175 3.75908 3.93551 5.4401 3.21022C7.76032 2.20917 10.0697 1.70868 12.3528 1.70868C14.6259 1.71858 16.8705 2.20477 18.9353 3.13437C21.3191 4.18399 22.6411 5.91512 23.0957 8.5825C23.4692 10.7714 22.8485 12.5946 21.1437 14.3198C19.6254 15.8561 17.5784 16.7601 14.7018 17.1647C13.2519 17.3687 11.5369 17.5377 9.81095 17.2444C9.59549 17.2086 9.35452 17.3405 9.1596 17.4471C7.99124 18.0889 6.83387 18.7325 5.60866 19.414L4.7125 19.9122C4.79072 19.6469 4.86437 19.3901 4.93615 19.1398V19.1397Z" fill="#4A4A4A"/>
<path d="M7.91327 10.8769H7.92769C8.09049 10.8764 8.25154 10.844 8.4014 10.7819C8.55126 10.7196 8.68691 10.6289 8.80041 10.5148C8.8979 10.4165 8.97401 10.2998 9.02413 10.172C9.07424 10.0441 9.09733 9.90764 9.092 9.7708C9.07362 9.49191 8.95046 9.22952 8.74615 9.03399C8.54186 8.83846 8.27083 8.72355 7.98516 8.71143C7.83338 8.71236 7.68331 8.74279 7.54363 8.80084C7.40395 8.85887 7.27746 8.94336 7.17146 9.04954C7.05591 9.15745 6.96332 9.28662 6.89903 9.42962C6.83472 9.57262 6.79997 9.7267 6.79677 9.88287C6.79591 10.0098 6.821 10.1356 6.87056 10.2529C6.92011 10.3702 6.99314 10.4765 7.08536 10.5659C7.30836 10.7726 7.60608 10.8844 7.91327 10.8769Z" fill="#4A4A4A"/>
<path d="M12.8262 11.1583H12.8366C13.1181 11.156 13.3873 11.0452 13.5857 10.85C13.7943 10.6518 13.9145 10.3811 13.9202 10.0968C13.9226 9.8129 13.7618 9.47725 13.5006 9.22126C13.3235 9.02705 13.0765 8.90722 12.8112 8.88672H12.8079C12.2721 8.88976 11.7386 9.46395 11.7308 10.0459C11.7281 10.1914 11.755 10.336 11.8101 10.4711C11.8651 10.6063 11.9471 10.7295 12.0513 10.8334C12.152 10.935 12.2724 11.016 12.4054 11.0718C12.5385 11.1275 12.6814 11.1569 12.8262 11.1583Z" fill="#4A4A4A"/>
<path d="M17.5031 11.0406H17.5099C17.7768 11.0306 18.0309 10.9255 18.2241 10.7454C18.4175 10.5651 18.5368 10.3221 18.5597 10.062C18.5524 9.80491 18.4421 9.5609 18.2523 9.38272C17.9971 9.10493 17.643 8.93287 17.2624 8.90175C17.1658 8.89988 17.07 8.91731 16.9805 8.95283C16.8911 8.98835 16.8101 9.04124 16.7423 9.10836C16.6355 9.21562 16.5516 9.34257 16.4956 9.48182C16.4396 9.62107 16.4124 9.76983 16.4158 9.91943C16.4093 10.2087 16.5199 10.4886 16.7235 10.6985C16.927 10.9084 17.2072 11.0315 17.5031 11.0406Z" fill="#4A4A4A"/>
</g>
<defs>
<clipPath id="clip0_350_754">
<rect width="25" height="22" fill="white"/>
</clipPath>
</defs>
</svg>
