<svg width="40" height="40" viewBox="0 0 50 50" fill="none" xmlns="http://www.w3.org/2000/svg">
<circle cx="25" cy="25" r="25" fill="#D1DBF9"/>
<g clip-path="url(#clip0_585_575)">
<path d="M28.5817 39.8178C25.7988 39.8178 23.0158 39.8029 20.2331 39.8225C17.9958 39.8383 15.7595 39.9095 13.5225 39.9265C12.8931 39.9265 12.2646 39.8746 11.6423 39.7718C10.3017 39.5602 9.76828 38.6883 10.2147 37.2815C10.52 36.3392 10.919 35.4367 11.4043 34.5904C13.4607 30.9659 16.4528 28.6122 20.0387 27.0959C21.9854 26.2556 24.0545 25.8085 26.1461 25.7761C29.2732 25.7463 32.1519 26.6178 34.6103 28.883C36.2885 30.4083 37.6601 32.2994 38.6382 34.4365C38.9104 35.0339 39.2172 35.6172 39.4353 36.2379C39.6447 36.811 39.791 37.4094 39.8713 38.0205C39.9788 38.9359 39.5143 39.5429 38.682 39.658C38.1013 39.7447 37.5163 39.7928 36.9302 39.8023C34.1474 39.8163 31.3644 39.8089 28.5817 39.8089V39.8178ZM37.7242 37.5834C37.735 37.486 37.7341 37.3875 37.7215 37.2904C36.8351 34.7627 35.6103 32.4781 33.718 30.6886C32.2582 29.308 30.6207 28.3145 28.6755 28.0451C26.434 27.7348 24.213 27.7998 22.0221 28.4777C17.8773 29.76 14.5703 32.2843 12.3057 36.3539C12.048 36.8167 11.8435 37.3151 11.6065 37.812C11.6786 37.8552 11.7537 37.8919 11.8312 37.9218C12.6066 38.1089 13.3799 37.9988 14.1619 37.9508C15.7871 37.8508 17.4168 37.8078 19.0448 37.7986C24.371 37.7685 29.6973 37.7707 35.0235 37.7428C35.9101 37.7376 36.7952 37.6405 37.7246 37.5834H37.7242Z" fill="#7F9DFF"/>
<path d="M25.5446 10.0978C27.6887 10.0404 29.4801 11.1642 30.8401 13.2066C31.1607 13.6881 31.5475 14.1352 31.7817 14.6633C32.3049 15.8438 32.7384 17.0565 32.4603 18.4343C32.1992 19.728 31.8587 20.9738 31.1001 22.0343C29.751 23.918 28.0309 25.0826 25.8327 25.3722C23.8539 25.633 21.9725 25.3111 20.2158 24.2887C18.4066 23.2358 17.3771 21.532 17.0034 19.3428C16.4409 16.0473 18.011 13.0916 20.4883 11.5202C21.9874 10.569 23.6062 10.0896 25.5446 10.0978ZM30.2427 16.7932C30.3409 15.9624 30.0381 15.2989 29.5689 14.6943C29.3859 14.4584 29.2204 14.2052 29.0298 13.9771C28.3401 13.1513 27.5536 12.4981 26.5074 12.3252C25.0407 12.0586 23.535 12.2754 22.1806 12.948C20.4876 13.803 19.2247 15.1064 18.9337 17.2736C18.5943 19.8019 19.7825 22.0644 21.8956 22.8113C23.1618 23.2459 24.4988 23.3736 25.8144 23.1856C27.6127 22.9595 29.7296 20.9296 30.0155 18.846C30.1089 18.1646 30.1679 17.4772 30.2427 16.7925V16.7932Z" fill="#7F9DFF"/>
</g>
<defs>
<clipPath id="clip0_585_575">
<rect width="30" height="30" fill="white" transform="translate(10 10)"/>
</clipPath>
</defs>
</svg>
