<svg width="30" height="30" viewBox="0 0 30 30" fill="none" xmlns="http://www.w3.org/2000/svg">
<path d="M21.0765 20.3389C21.1623 21.3943 20.7103 22.2822 20.1385 23.0671C19.6126 23.7887 18.7462 23.8843 17.9721 23.6512C17.1637 23.4004 16.3924 23.037 15.6797 22.5714C14.7018 21.9393 14.6725 21.8879 13.7257 22.6037C13.3138 22.9151 12.9109 23.2448 12.4726 23.5123C11.5534 24.0733 10.5895 23.8953 9.87691 23.0742C8.84869 21.889 8.78312 21.3908 9.50079 19.8972C9.82095 19.2325 10.0979 18.5276 10.5217 17.938C12.3037 15.4579 15.6618 14.5396 18.2961 15.752C20.2277 16.6407 20.9198 18.3191 21.0765 20.3389ZM15.7976 16.6303C13.2277 16.6411 10.942 18.5115 10.3146 21.1056C10.1809 21.6587 10.4171 22.0437 10.812 22.3512C11.1907 22.6458 11.5379 22.4646 11.855 22.2063C12.3215 21.826 12.7642 21.4116 13.2488 21.0581C14.2733 20.3113 15.0929 20.3086 16.1431 20.9999C16.5543 21.2707 16.9353 21.6199 17.3811 21.7994C18.8245 22.3804 19.2951 21.9486 19.4156 20.4109C19.5943 18.1316 18.0347 16.6202 15.7976 16.6303Z" fill="black"/>
<path d="M11.0174 11.1912C10.8804 11.646 10.8638 11.9965 10.6884 12.2039C10.4907 12.4373 10.1346 12.6875 9.87369 12.6605C9.615 12.6341 9.19803 12.2829 9.18497 12.0539C9.14236 11.3705 9.20152 10.6844 9.36041 10.0194C9.48105 9.53455 9.98549 9.4977 10.272 9.84575C10.6086 10.254 10.8023 10.7872 11.0174 11.1912Z" fill="black"/>
<path d="M21.3501 10.9879C21.3432 11.8752 21.0043 12.3608 20.5314 12.4247C20.0414 12.4906 19.6311 12.1411 19.5124 11.4731C19.4357 11.0882 19.4274 10.6922 19.4878 10.3043C19.5307 10.0732 19.761 9.75511 19.9589 9.70836C20.2222 9.64634 20.6548 9.71115 20.8029 9.89828C21.0954 10.2691 21.2437 10.7614 21.3501 10.9879Z" fill="black"/>
<path d="M20.207 6.45996C20.7661 6.65196 21.2905 6.76997 21.7481 7.01794C21.947 7.12579 22.0084 7.50099 22.1323 7.75541C21.8832 7.86787 21.6353 8.06712 21.3846 8.07081C21.0788 8.07542 20.7748 7.86719 20.4626 7.83874C20.0272 7.79924 19.5847 7.85574 19.1461 7.84125C18.937 7.81713 18.7303 7.77431 18.5284 7.71326C18.5948 7.48096 18.5945 7.1196 18.7401 7.04006C19.1942 6.79103 19.7037 6.64894 20.207 6.45996Z" fill="black"/>
<path d="M10.9419 8.28559C10.0352 8.434 9.2809 8.54383 8.53198 8.68487C8.03791 8.77798 7.72518 8.48326 7.84364 7.99482C7.98566 7.40643 8.909 6.99885 9.78905 7.13607C10.5181 7.24972 10.9224 7.70233 10.8927 8.37394C10.8919 8.39211 10.8743 8.40977 10.9419 8.28559Z" fill="black"/>
<path d="M0.530662 10.8726C-0.795053 16.2306 0.365841 20.9573 3.98351 24.9238C4.07764 25.0263 4.17369 25.1286 4.26961 25.2267C6.21297 27.225 8.63351 28.4589 10.5514 29.3174C11.3746 29.687 15.5984 30.1361 16.7412 29.9609C23.5328 28.9181 28.0022 24.979 29.5589 18.389C29.8561 17.0981 30.0041 15.7757 29.9999 14.4491C30.0071 11.3241 28.7276 7.69107 26.0888 4.9701C25.8172 4.73925 25.5464 4.49983 25.2847 4.26806C24.7169 3.76606 24.1301 3.24657 23.5162 2.8033C18.8264 -0.590859 13.9535 -0.609954 9.0337 1.19011C4.57939 2.81884 1.71871 6.07696 0.530662 10.8726ZM9.05279 2.79459C13.3694 0.949885 17.7007 0.624349 21.9251 3.38719C22.6976 3.89288 24.7567 5.60446 25.081 5.86138L25.1017 5.87733L25.119 5.89681C26.7671 7.69398 28.6542 10.98 28.6126 14.358C28.5988 15.8024 28.4087 17.2393 28.0466 18.635C26.9735 22.6456 24.4081 25.5686 20.2037 27.5679C15.9294 29.6723 9.79978 27.5448 8.16889 26.4376C6.36632 25.1703 4.78907 23.5938 3.5061 21.7768C1.49396 18.8473 1.0424 14.6365 2.12364 10.787C2.62967 9.00961 3.51398 7.3703 4.71246 5.98793C5.91094 4.60555 7.39355 3.51473 9.05279 2.79459Z" fill="black"/>
</svg>
