<svg width="25" height="25" viewBox="0 0 25 25" fill="none" xmlns="http://www.w3.org/2000/svg">
<g clip-path="url(#clip0_350_745)">
<path d="M23.7267 10.0347C23.4534 10.0398 23.1836 10.0383 22.9669 10.037L22.823 10.0363L21.4552 7.45933C21.5361 7.36402 21.621 7.26656 21.7076 7.16677C21.9614 6.87473 22.2238 6.57262 22.4667 6.24671C22.7726 5.83659 22.7473 5.36179 22.4008 5.00781L22.3787 4.98524C21.5127 4.09993 20.6169 3.18451 19.6956 2.32645C19.4338 2.08268 19.2028 1.97436 18.9719 1.98436C18.7277 1.99528 18.486 2.14281 18.2116 2.44832C18.0131 2.66924 17.8212 2.89026 17.6179 3.12434C17.5515 3.20101 17.4842 3.27841 17.4162 3.35657C16.8099 2.73851 16.0504 2.36942 14.979 2.17085C14.979 2.1084 14.9802 2.04657 14.981 1.98535C14.9835 1.7878 14.9859 1.60129 14.9765 1.41068C14.9219 0.311592 14.6132 0.0105601 13.54 0.0102539H13.5313C12.8594 0.0102539 12.1773 0.0341251 11.5178 0.0572884C11.2041 0.0682068 10.8912 0.0793093 10.5778 0.0878807C10.096 0.101146 9.80048 0.368394 9.74562 0.840332C9.70979 1.1491 9.68631 1.45751 9.66556 1.72966C9.65898 1.8167 9.65271 1.89982 9.64643 1.97757L7.22357 3.35802C7.17387 3.2968 7.12316 3.23362 7.07175 3.16924C6.90444 2.96077 6.73145 2.74504 6.54421 2.53586C6.27649 2.23668 6.01789 2.08547 5.75342 2.07384C5.49572 2.06415 5.23602 2.18271 4.9598 2.44189C4.17175 3.18138 3.41982 3.92035 2.72509 4.63831C2.15636 5.22576 2.12923 5.71996 2.62842 6.40221C2.80635 6.64506 3.00443 6.87466 3.16354 7.05914C3.20989 7.11292 3.25331 7.16308 3.29259 7.20951L2.21202 10.1381C2.09997 10.1483 1.98621 10.1576 1.87133 10.167C1.55605 10.1929 1.23005 10.2197 0.905857 10.2636C0.315067 10.3434 0.0850028 10.6047 0.0852052 11.1953C0.0852052 12.3351 0.0971465 13.2839 0.121135 14.1811C0.130042 14.5149 0.222955 14.7618 0.397449 14.9149C0.577611 15.0731 0.833586 15.131 1.18116 15.0915C1.3766 15.0696 1.57144 15.044 1.76638 15.0183L1.8175 15.0114C1.81872 15.0226 1.8217 15.0336 1.8263 15.0439L3.04826 17.7268C2.89098 17.8485 2.73342 17.9696 2.57559 18.0903C2.40325 18.2225 2.23119 18.355 2.0594 18.4876C1.55646 18.8774 1.46293 19.3218 1.78125 19.8087C2.30291 20.606 2.91628 21.5271 3.59614 22.368C4.19796 23.1129 4.68611 23.1661 5.53044 22.5805C5.88186 22.3366 6.23156 22.0907 6.58389 21.8424L6.99664 21.5521C7.91588 22.2877 8.83258 22.6236 9.85019 22.6086C9.84088 22.6954 9.83177 22.7779 9.82296 22.8574C9.79665 23.0948 9.77387 23.2999 9.7596 23.5093C9.72256 24.057 9.79573 24.397 9.99675 24.6127C10.1927 24.8226 10.5124 24.9169 11.0306 24.9169H11.064C11.7664 24.9116 12.4804 24.8992 13.1708 24.8872C13.4558 24.8821 13.7407 24.8773 14.0257 24.8727C14.4232 24.8664 14.7039 24.7659 14.8846 24.5653C15.0654 24.3647 15.1377 24.0728 15.1047 23.6736C15.0824 23.3991 15.0576 23.1248 15.0352 22.8783L15.015 22.6552L17.1371 21.7543L17.181 21.8147C17.2597 21.9228 17.3399 22.0328 17.419 22.1436C17.4586 22.1989 17.4972 22.255 17.5357 22.3111C17.605 22.4118 17.6766 22.5161 17.7539 22.6152C18.134 23.1031 18.5527 23.2065 19.1117 22.9513C19.2959 22.8736 19.4691 22.7715 19.6268 22.6481C19.8078 22.4964 19.989 22.345 20.1706 22.1938C20.9106 21.5763 21.6759 20.9378 22.4031 20.2797C22.7341 19.9801 22.8861 19.7293 22.8964 19.4663C22.9065 19.1983 22.7648 18.9237 22.4368 18.5762C22.1974 18.3227 21.9558 18.0714 21.7339 17.8407L21.5112 17.6087L22.9124 14.9139C22.9693 14.9084 23.0315 14.9025 23.0976 14.8964C23.3187 14.876 23.5935 14.8502 23.8649 14.8178C24.4435 14.749 24.6495 14.5585 24.7833 13.9689C25.0557 12.7688 24.844 11.5975 24.6296 10.7113C24.5203 10.2597 24.2076 10.0293 23.7267 10.0347ZM21.3237 14.2045C21.0283 15.4065 20.6112 16.2443 19.9711 16.9208C19.7115 17.1951 19.721 17.5794 19.997 17.9751C20.2476 18.3344 20.5089 18.683 20.7856 19.0521C20.8839 19.1834 20.984 19.3168 21.0858 19.454L18.694 21.3702C18.6274 21.2902 18.562 21.2112 18.4981 21.1333C18.31 20.9055 18.1325 20.6904 17.945 20.479C17.4462 19.9164 17.1844 19.9395 16.5438 20.3104C16.0356 20.5935 15.5004 20.824 14.9463 20.9986C13.6745 21.4261 13.5789 21.9973 13.5725 22.8875C13.5717 23.0004 13.5641 23.1169 13.556 23.2403C13.5539 23.2715 13.5518 23.3034 13.5498 23.336H11.1915L11.1786 23.0504C11.1668 22.7843 11.1554 22.5286 11.1425 22.2731C11.1062 21.5565 10.956 21.2971 10.1846 21.2691C9.02913 21.2271 8.05716 20.8862 7.21303 20.2267C6.89188 19.9755 6.52022 19.9965 6.0767 20.2905C5.74603 20.5098 5.42062 20.7362 5.07599 20.9761C4.94961 21.0642 4.82012 21.1542 4.68753 21.246L3.18005 19.2076C3.27329 19.1289 3.36533 19.0505 3.45615 18.9725C3.71749 18.7491 3.96415 18.538 4.22387 18.3369C4.65241 18.0054 4.68794 17.8107 4.40535 17.3444C3.8928 16.4985 3.36345 15.4738 3.32306 14.2872C3.30909 13.8716 3.06719 13.6534 2.60444 13.6384C2.33227 13.6295 2.05788 13.6314 1.76628 13.6333C1.66294 13.634 1.55676 13.6348 1.44663 13.6351L1.34391 11.6384C1.4931 11.6225 1.63743 11.606 1.77802 11.59C2.15252 11.5471 2.50677 11.5068 2.85798 11.4904C3.29169 11.47 3.54542 11.2375 3.61222 10.7985C3.80696 9.51965 4.16618 8.52859 4.7426 7.67921C4.83681 7.55854 4.88859 7.4098 4.88983 7.25625C4.89108 7.1027 4.84172 6.95304 4.74948 6.83085C4.53706 6.52057 4.32377 6.21128 4.1096 5.90291L3.91294 5.61851L5.84381 3.63719C5.91992 3.71201 5.99607 3.78687 6.07225 3.8617C6.29492 4.08078 6.52467 4.3071 6.75493 4.527C7.20676 4.95802 7.33541 4.89903 7.80697 4.58046C8.40312 4.1775 9.04097 3.75932 9.70827 3.4634C10.2822 3.20901 10.7955 2.91343 10.7711 2.1017C10.7739 1.93024 10.7969 1.75973 10.8396 1.59373C10.8533 1.52914 10.8672 1.46281 10.8801 1.39424H13.5697C13.5703 1.45005 13.5715 1.50645 13.5725 1.56329C13.5763 1.76604 13.5803 1.97556 13.5657 2.18067C13.5086 2.97934 13.7737 3.31852 14.5111 3.39026C15.2905 3.46618 15.9721 3.81537 16.7197 4.52292C17.1175 4.89904 17.3372 4.96982 17.7776 4.61798C18.0712 4.38329 18.3432 4.13566 18.631 3.8731C18.7297 3.78318 18.8293 3.69289 18.9298 3.60221L20.8583 5.64935C20.8129 5.69741 20.7642 5.7483 20.7131 5.80177C20.5149 6.00952 20.2901 6.24506 20.0677 6.49149C19.4726 7.15139 19.4688 7.39963 20.0436 8.0527C20.6526 8.72681 21.0817 9.54594 21.2905 10.4332C21.407 10.9462 21.6993 11.1957 22.2104 11.2188C22.4558 11.2297 22.701 11.2432 22.9775 11.258L23.2978 11.2751L23.4115 13.4187H23.1125C22.8459 13.4181 22.6053 13.4178 22.3646 13.4198C21.7373 13.4251 21.4648 13.6305 21.3237 14.2045Z" fill="#4A4A4A"/>
<path d="M13.3232 6.01719C12.3303 5.92462 11.3297 6.06697 10.401 6.43293C9.47229 6.79889 8.64116 7.37834 7.97374 8.12517C7.30631 8.87201 6.82101 9.76561 6.55647 10.7348C6.29194 11.7041 6.25546 12.7222 6.44996 13.7081C6.95866 16.1378 8.20816 17.6747 10.27 18.4068C10.8779 18.6183 11.5173 18.7227 12.1604 18.7156C12.6956 18.7113 13.2293 18.659 13.7554 18.5596C17.1562 17.9464 19.0287 15.5398 19.0271 11.7831V11.7807C18.9858 10.6055 18.5973 9.46943 17.9111 8.51839C16.8306 7.06165 15.2871 6.22005 13.3232 6.01719ZM17.4133 13.3617C17.0092 15.3985 15.7348 16.5819 13.5174 16.9793C12.7996 17.1079 11.858 17.2195 10.9412 16.9404C9.3446 16.4541 8.3862 15.3223 8.0113 13.4805C7.95264 13.1562 7.91424 12.8284 7.89632 12.4992C7.88478 12.3461 7.87335 12.1939 7.85786 12.0421C7.85503 11.43 7.97481 10.8237 8.21005 10.2594C8.44527 9.69521 8.7911 9.18464 9.22679 8.7584C10.1549 7.85707 11.4586 7.38909 12.8891 7.4346C14.4334 7.48562 15.6569 8.04555 16.5254 9.0979C17.4659 10.2377 17.7564 11.6326 17.4133 13.3617Z" fill="#4A4A4A"/>
</g>
<defs>
<clipPath id="clip0_350_745">
<rect width="25" height="25" fill="white"/>
</clipPath>
</defs>
</svg>
