<svg width="25" height="25" viewBox="0 0 25 25" fill="none" xmlns="http://www.w3.org/2000/svg">
<path d="M12.7666 17.5559C11.5033 17.5281 10.5339 17.3382 9.60991 16.9214C8.91938 16.6173 8.33488 16.1048 7.93367 15.4517C7.78426 15.2103 7.66548 14.9234 7.90709 14.7046C8.17485 14.4622 8.44069 14.6223 8.64688 14.8583C9.88483 16.2776 11.4943 16.6009 13.2134 16.3392C14.6609 16.1187 15.756 15.2747 16.3883 13.872C16.463 13.7074 16.5121 13.4947 16.6401 13.4001C16.8215 13.2663 17.0937 13.1166 17.2748 13.1681C17.4603 13.2209 17.7063 13.5083 17.7061 13.6926C17.7112 14.053 17.6194 14.4078 17.4408 14.7179C16.2819 16.5368 14.6411 17.5078 12.7666 17.5559Z" fill="#4A4A4A"/>
<path d="M15.9355 8.64239C16.0108 8.22625 16.0495 7.92074 16.1239 7.62466C16.2145 7.26405 16.4309 7.00187 16.809 6.95523C17.1932 6.90837 17.4979 7.08496 17.7233 7.39706C18.1289 7.95926 18.0846 9.4018 17.6519 9.93844C17.2624 10.4213 16.5513 10.4006 16.2772 9.84121C16.0852 9.44987 16.0291 8.98763 15.9355 8.64239Z" fill="#4A4A4A"/>
<path d="M8.64722 8.66261C8.5405 9.08028 8.49782 9.43254 8.36175 9.74201C8.10701 10.3236 7.47106 10.3922 7.1287 9.86646C6.67376 9.16774 6.63993 8.3709 6.90459 7.60688C7.11526 6.9987 7.89207 6.94011 8.22653 7.4988C8.44136 7.85777 8.52204 8.30178 8.64722 8.66261Z" fill="#4A4A4A"/>
<path d="M0.44222 9.06041C-0.662543 13.5254 0.304862 17.4644 3.31959 20.7692C3.39803 20.8546 3.47807 20.94 3.558 21.0223C5.17747 22.6875 7.19458 23.7157 8.79282 24.4312C9.47882 24.7392 12.9987 25.1133 13.951 24.9675C19.6107 24.0983 23.3352 20.8159 24.6324 15.3242C24.8801 14.2485 25.0034 13.1464 24.9999 12.041C25.0059 9.43682 23.9397 6.40928 21.7407 4.14182C21.5142 3.94933 21.2886 3.74993 21.0705 3.55667C20.5974 3.13845 20.1084 2.70543 19.5968 2.33615C15.6886 -0.492422 11.6279 -0.508249 7.52809 0.991691C3.81616 2.34886 1.43226 5.06409 0.44222 9.06041ZM7.544 2.32868C11.1412 0.791535 14.7506 0.520256 18.2709 2.82251C18.9146 3.24392 20.6306 4.67012 20.9008 4.88434L20.9181 4.89749L20.9324 4.91386C22.3059 6.4115 23.8785 9.14986 23.8438 11.9648C23.8324 13.1685 23.6739 14.3658 23.3721 15.5289C22.4779 18.8711 20.3401 21.3069 16.8364 22.9729C13.2745 24.7267 8.16648 22.9537 6.8074 22.0312C5.30526 20.9751 3.99089 19.6612 2.92175 18.1471C1.24497 15.7059 0.868668 12.1968 1.7697 8.98896C2.1914 7.50783 2.92834 6.14176 3.92707 4.98979C4.9258 3.83781 6.1613 2.92881 7.544 2.32868Z" fill="#4A4A4A"/>
</svg>
