<svg width="32" height="30" viewBox="0 0 32 30" fill="none" xmlns="http://www.w3.org/2000/svg">
<path d="M16.009 22.2113C12.6562 24.5315 9.37757 26.7969 6.10521 29.0704C5.86494 29.2374 5.68165 29.4764 5.45002 29.6568C4.91409 30.0739 4.4082 29.9066 4.28654 29.2563C4.23973 28.9974 4.2528 28.7316 4.32485 28.4778C4.66617 27.3146 4.99203 26.1445 5.40713 25.0043C6.19349 22.8452 7.03665 20.7048 7.85711 18.557C7.94258 18.3332 8.03598 18.1124 8.10934 17.9304C5.80889 15.9359 3.63104 13.9001 1.50555 11.8141C1.21969 11.5283 0.977757 11.2057 0.786875 10.8556C0.543827 10.416 0.712797 10.121 1.22423 10.0567C1.72935 9.99086 2.23862 9.95801 2.74848 9.95834C4.69523 9.96918 6.64172 10.0102 8.58846 10.0205C9.35129 10.0246 10.1144 9.97753 10.9179 9.95253C11.2886 9.07374 11.652 8.22207 12.0077 7.36749C12.9435 5.11893 13.8777 2.86962 14.8101 0.619564C14.8424 0.537121 14.8801 0.456672 14.923 0.378697C15.1929 -0.0893985 15.6989 -0.133313 16.0366 0.301585C16.1784 0.502281 16.2938 0.71875 16.3801 0.946132C17.1135 2.65689 17.8118 4.38167 18.5795 6.07814C19.0264 7.06525 19.5818 8.00831 20.1006 8.99543C20.3225 8.99543 20.5043 8.99887 20.6868 8.99543C22.9569 8.94609 25.2269 8.88393 27.4973 8.85073C28.584 8.83485 29.6717 8.88037 30.7591 8.88341C31.1142 8.88447 31.4093 8.96884 31.5664 9.28642C31.6433 9.43776 31.6647 9.60915 31.6273 9.77337C31.5898 9.9376 31.4959 10.0852 31.36 10.1928C30.6452 10.8517 29.9318 11.5133 29.1862 12.1398C27.2073 13.8029 25.2113 15.4476 23.2236 17.1014C23.0354 17.258 22.8593 17.4277 22.6839 17.5857C22.7036 17.6876 22.7315 17.788 22.7674 17.8859C24.2804 20.9741 25.2185 24.232 25.9337 27.5558C26.0561 28.0247 26.151 28.4996 26.2181 28.9783C26.2912 29.7439 26.0199 29.8513 25.2452 29.9695C24.161 30.136 23.5019 29.5934 22.813 28.9946C21.0173 27.4338 19.2206 25.873 17.6515 24.0959C17.1164 23.49 16.5898 22.8781 16.009 22.2113ZM6.71035 26.8878L6.80944 26.9747C6.93988 26.8873 7.07396 26.8046 7.20021 26.7118C9.8729 24.7422 12.5459 22.7726 15.2193 20.803C15.8833 20.3151 16.2525 20.3207 16.8818 20.8408C17.3038 21.1855 17.7016 21.5558 18.0726 21.9497C19.7969 23.8024 21.739 25.4408 23.6518 27.1082C23.7293 27.1759 23.8201 27.2297 23.9728 27.3384C23.9497 27.1743 23.9471 27.0898 23.9252 27.01C23.1411 24.1389 22.3459 21.2704 21.2183 18.4986C20.9184 17.7614 20.998 17.1869 21.6677 16.6204C23.8832 14.7464 26.0526 12.8229 28.2381 10.9181C28.4178 10.7616 28.5961 10.6039 28.8793 10.3554C28.4863 10.3554 28.2561 10.3529 28.026 10.3554C25.5227 10.3878 23.0182 10.3872 20.5167 10.4697C19.4391 10.5053 18.7627 10.0729 18.2968 9.21762C18.2861 9.19805 18.2764 9.17796 18.2673 9.15785C17.8219 8.16796 17.3486 7.1885 16.9402 6.18512C16.5146 5.1402 16.1541 4.07059 15.7593 3.01363C15.6843 2.81272 15.5824 2.6209 15.4421 2.31338C15.1483 3.00713 14.8748 3.58026 14.6604 4.17282C13.9835 6.04467 13.3124 7.91875 12.6711 9.80185C12.2576 11.0162 11.3199 11.5313 10.0932 11.451C8.26746 11.3319 6.43779 11.2628 4.60937 11.1837C4.10824 11.162 3.60599 11.1804 3.01606 11.1804C3.64247 11.7176 4.22709 12.2101 4.80018 12.7135C6.33141 14.057 7.86517 15.3985 9.37997 16.7585C9.62286 16.9936 9.82212 17.2661 9.96934 17.5644C10.1758 17.952 10.1062 18.2641 9.71876 18.4744C9.43534 18.6283 9.34989 18.8447 9.2633 19.093C8.79753 20.4289 8.31369 21.7585 7.87298 23.1007C7.46177 24.3567 7.09608 25.6253 6.71021 26.8878H6.71035Z" fill="black"/>
</svg>
