<svg width="81" height="77" viewBox="0 0 101 97" fill="none" xmlns="http://www.w3.org/2000/svg">
<path d="M100.109 24.9833C100.809 21.9882 100.152 20.8754 96.9958 20.8411C94.9801 20.82 92.9635 20.77 90.9486 20.7962C89.6785 19.0828 88.2856 17.464 86.781 15.9524C85.884 15.2114 84.9905 14.4429 84.1265 13.699C82.2528 12.0878 80.3161 10.4204 78.2898 8.99766C62.8109 -1.89646 46.7279 -1.95775 30.4899 3.81985C20.9758 7.20127 13.6673 12.7806 8.63065 20.4615C6.89175 20.4492 5.15242 20.4442 3.41437 20.4298C0.262876 20.404 -0.57149 21.6027 0.357558 24.5594C0.471075 25.0356 0.536355 25.522 0.552412 26.0113C0.84645 29.2937 1.40493 32.547 2.22241 35.7396C-1.81671 52.5897 2.07701 67.4744 13.8216 79.9941C14.1322 80.323 14.4492 80.6513 14.7658 80.9662C21.18 87.3804 29.169 91.3404 35.4991 94.0959C38.216 95.2823 52.1568 96.7238 55.9288 96.1616C78.3447 92.8144 93.0962 80.1712 98.2339 59.0195C99.2149 54.8763 99.7033 50.6317 99.6891 46.3739C99.6784 42.7399 99.1758 39.1241 98.195 35.6251C98.328 35.1889 98.4548 34.7522 98.5754 34.3148C99.4089 31.2952 99.3933 28.0477 100.109 24.9833ZM92.8697 34.0164C92.2255 36.2473 91.5593 38.4304 90.7871 40.5746C88.9303 45.741 84.8455 48.3292 79.4209 48.4695C76.0678 48.5562 72.6394 48.5286 69.3569 47.9348C62.5378 46.7005 57.9293 41.4589 56.8688 34.5515C56.5307 32.348 57.1068 30.7896 59.2984 30.1696C63.7501 28.9117 68.1666 27.2882 72.7138 26.6694C77.9728 25.9533 83.3023 25.7555 88.6209 25.4858C90.3299 28.1739 91.7539 31.0329 92.8697 34.0164ZM30.5529 8.96969C44.8001 3.04881 59.0955 2.00395 73.0384 10.8717C75.5876 12.4948 82.3843 17.9884 83.4541 18.8131L83.523 18.8637L83.5796 18.9268C84.1663 19.549 84.7631 20.2299 85.3582 20.9557C77.2796 21.304 69.2757 22.2258 61.5593 24.947C59.1363 25.8496 56.8448 27.0721 54.7457 28.582C52.6607 30.0373 48.2483 30.0707 46.1282 28.5841C43.915 27.0329 41.5632 25.5252 39.0504 24.586C32.348 22.0808 25.2859 21.1306 18.1815 20.7172C17.1442 20.6567 16.1061 20.6133 15.0676 20.5782C19.199 15.497 24.517 11.5103 30.5529 8.96969ZM11.9335 25.0002C13.7704 24.9892 15.5939 25.0002 17.4135 25.0847C24.599 25.414 31.7266 26.3059 38.5309 28.7545C44.273 30.821 44.7354 30.8501 42.6647 37.3438C40.351 44.5995 34.6414 47.7154 27.3566 48.1001C24.4799 48.2005 21.5998 48.066 18.7449 47.698C15.172 47.2994 12.5683 45.37 10.6874 42.2485C9.32885 39.9433 8.29468 37.4618 7.6141 34.874C7.63777 34.7895 7.65891 34.707 7.683 34.6242C8.66138 31.24 10.091 28.0029 11.9335 25.0002ZM6.01595 25.051C5.94621 25.1922 5.87393 25.3312 5.80461 25.4737C5.78348 25.3329 5.76235 25.1926 5.74079 25.051H6.01595ZM95.1111 46.0843C95.0657 50.7204 94.438 55.3324 93.2429 59.8121C89.7012 72.6847 81.2342 82.0665 67.3572 88.4836C53.2499 95.238 33.0188 88.4097 27.636 84.8558C21.6865 80.7882 16.4806 75.728 12.2458 69.8963C7.35458 62.9707 5.26105 53.8143 5.92127 44.5335C6.09035 44.8121 6.2628 45.0902 6.44413 45.3654C8.66911 48.7341 11.605 51.0714 15.5533 52.0749C21.0156 53.5184 26.7387 53.6721 32.2706 52.5238C40.3506 50.8191 45.3399 45.8163 47.6747 38.026C47.9647 36.849 48.1938 35.6578 48.3612 34.4572H52.0262C52.1255 35.0215 52.219 35.4957 52.2921 35.9734C53.7224 45.2955 59.8745 51.8476 69.1992 53.075C73.5909 53.6532 78.16 53.3366 82.6062 52.927C88.1855 52.4126 92.3569 49.341 94.7793 44.298C94.8677 44.1142 94.9526 43.9278 95.0393 43.7426C95.0934 44.5208 95.1204 45.3015 95.1107 46.0843H95.1111ZM93.9504 25.4051C94.3338 25.4432 94.7654 25.485 95.2815 25.5235C95.1306 26.0362 94.9856 26.5435 94.8402 27.0502C94.5559 26.4979 94.2591 25.9496 93.95 25.4051H93.9504Z" fill="black"/>
<path d="M70.8112 58.6993C69.5516 57.7149 67.9476 58.4225 66.4348 60.7929C63.8903 64.7804 60.3309 67.21 55.6878 67.781C52.2907 68.1986 48.8184 68.5135 45.4192 68.284C40.7347 67.9678 36.2729 66.8046 33.2922 62.5355C32.8805 61.9459 31.1048 61.5875 30.587 61.97C30.2086 62.3259 29.9195 62.766 29.7432 63.2547C29.567 63.7433 29.5085 64.2666 29.5726 64.7821C30.1546 67.2797 31.9396 69.0283 34.0754 70.3847C39.1547 73.6076 44.844 74.1825 50.8257 74.2281C52.6221 74.0079 54.5875 73.8617 56.5196 73.5096C62.8809 72.3557 68.2954 69.7705 71.1058 63.4544C71.832 61.8309 72.6101 60.1056 70.8112 58.6993Z" fill="black"/>
</svg>
