<svg width="41" height="32" viewBox="0 0 61 52" fill="none" xmlns="http://www.w3.org/2000/svg">
<g clip-path="url(#clip0_951_658)">
<path d="M2.30943 20.8905C1.72957 21.0986 1.17055 21.3613 0.639835 21.6752C0.473069 21.7584 0.328589 21.8806 0.218552 22.0316C0.108515 22.1825 0.0361343 22.3579 0.00748979 22.5428C-0.0191193 22.8811 0.15811 23.2196 0.532646 23.5485C0.84417 23.8044 1.17989 24.029 1.535 24.219C1.80736 24.3755 2.08475 24.5234 2.36214 24.6711C2.75926 24.8826 3.16995 25.1002 3.55252 25.3418C8.74053 28.6065 13.4616 31.5011 18.6393 33.8398C18.6283 34.0261 18.616 34.2119 18.6035 34.3969C18.5683 34.9199 18.5322 35.4604 18.5314 35.994C18.5302 36.7998 18.5271 37.606 18.5219 38.4128C18.5086 40.9709 18.4948 43.6161 18.5804 46.2173C18.6112 47.1551 18.9461 47.8258 19.5232 48.1055C20.13 48.3985 20.9099 48.2279 21.7195 47.6223C22.0114 47.404 22.3106 47.1586 22.634 46.8721C24.0523 45.6145 25.4686 44.3547 26.8985 43.0827L28.1943 41.9298C28.2041 41.9372 28.2136 41.9445 28.2224 41.9523L29.4206 42.9885C30.7846 44.1676 32.1949 45.3866 33.5716 46.5982C33.9637 46.9425 34.358 47.2851 34.7547 47.6256C35.9636 48.6694 37.2148 49.7488 38.3384 50.9054C38.9338 51.5175 39.5127 51.8053 40.2083 51.8053C40.5083 51.801 40.8062 51.7566 41.0947 51.6733C42.1096 51.3956 42.7645 50.7721 43.2181 49.6539C44.9279 45.4406 46.6775 41.1609 48.3695 37.0227C49.7584 33.6232 51.1464 30.2235 52.533 26.8233C55.5205 19.5241 58.0978 12.0618 60.2527 4.47184C60.5137 3.59145 60.6972 2.68965 60.8012 1.77692C60.8361 1.56544 60.823 1.34881 60.7635 1.14302C60.7038 0.937223 60.5988 0.747542 60.4565 0.587998C60.2851 0.432336 60.081 0.317245 59.8593 0.251201C59.6379 0.185158 59.4044 0.169848 59.1763 0.206336C58.874 0.242809 58.5761 0.310429 58.2876 0.408229L58.2487 0.420124C57.6006 0.614493 56.9506 0.803268 56.3007 0.992336C54.7908 1.43131 53.2294 1.88521 51.7144 2.40269C40.7718 6.14266 29.6741 10.2143 18.7292 14.5045C15.5725 15.7414 12.3584 16.9889 9.24987 18.1948C6.93505 19.0914 4.62157 19.99 2.30943 20.8905ZM23.1398 32.4202C23.7423 31.914 24.3134 31.4357 24.8995 30.9861C27.1974 29.2216 29.4976 27.46 31.7998 25.7015C36.3233 22.2417 41.0013 18.664 45.5765 15.1114C46.9755 14.0259 48.3035 12.8057 49.5875 11.6279C50.0285 11.224 50.4691 10.8183 50.9131 10.4182C51.2676 10.0992 51.8603 9.56529 51.5317 8.52226C51.5209 8.48818 51.5033 8.45671 51.48 8.42982C51.4566 8.40291 51.428 8.38123 51.3959 8.36603C51.3637 8.35096 51.3288 8.34261 51.2932 8.34157C51.2578 8.34051 51.2224 8.34677 51.1895 8.35993C51.0522 8.41571 50.9197 8.46496 50.7919 8.51141C50.5258 8.60286 50.2667 8.71345 50.0165 8.84236C41.5257 13.4787 34.1396 19.5584 26.9971 25.4383C25.3818 26.7678 23.8592 28.1392 22.2489 29.5897C21.5651 30.2059 20.8744 30.8246 20.1766 31.446L4.24561 22.7675C4.33743 22.7106 4.43383 22.6614 4.53379 22.6206C7.09596 21.6504 9.65713 20.6767 12.2173 19.6995C18.4862 17.3115 24.9695 14.842 31.3726 12.4929C37.0749 10.4008 42.9103 8.37406 48.5535 6.41396C50.4299 5.76237 52.3061 5.1095 54.1815 4.45538C54.9083 4.20144 55.6418 4.00278 56.4185 3.79276C56.6243 3.73723 56.8309 3.68096 57.0385 3.62391C53.9119 13.5885 49.9233 23.3622 46.064 32.8195C44.036 37.7888 41.9406 42.9236 39.9813 48.0555C34.6558 43.7438 29.4901 39.1857 24.4928 34.7756C23.8179 34.1793 23.1416 33.5828 22.4638 32.9861C22.6942 32.793 22.9189 32.6047 23.139 32.4202H23.1398ZM26.0997 40.0212L21.5309 43.9142L21.1687 35.4409L26.0997 40.0212Z" fill="black"/>
</g>
<defs>
<clipPath id="clip0_951_658">
<rect width="61" height="52" fill="white"/>
</clipPath>
</defs>
</svg>
