<svg width="40" height="40" viewBox="0 0 50 50" fill="none" xmlns="http://www.w3.org/2000/svg">
<circle cx="25" cy="25" r="25" fill="#FCF7EA"/>
<g clip-path="url(#clip0_585_594)">
<path d="M39.6135 28.131C39.4423 29.4021 38.8829 30.5423 38.318 31.6618C37.3644 33.5784 36.0275 35.2636 34.3959 36.6054C32.4676 38.1856 30.2627 39.1318 27.8527 39.5685C26.3588 39.8393 24.8538 40.0363 23.328 39.9562C19.6497 39.7631 16.4745 38.4339 13.8939 35.6435C12.799 34.4399 11.8683 33.0874 11.1277 31.6234C10.7001 30.8006 10.5395 29.94 10.3955 29.058C10.1292 27.4262 9.9654 25.7959 10.1404 24.128C10.3565 22.0682 10.9068 20.1377 11.9015 18.3433C13.1075 16.1265 14.7598 14.2029 16.7469 12.7027C18.7256 11.2208 20.9652 10.4616 23.3849 10.1597C25.9499 9.81844 28.5567 10.0991 30.9987 10.9794C33.3946 11.8485 35.5328 13.1747 36.9788 15.3988C38.4247 17.623 39.4281 20.0248 39.7685 22.7433C40.0513 24.9988 39.7621 27.0282 39.6135 28.131ZM38.2161 24.7685C38.2039 23.1851 38.0596 21.6191 37.5037 20.1467C37.0457 18.9335 36.5014 17.0853 35.5747 16.1276C34.2873 14.2771 32.495 13.1473 30.4655 12.4006C28.1514 11.5316 25.6651 11.2677 23.2283 11.6323C20.7384 12.0035 18.5076 12.9479 16.6317 14.7032C16.0782 15.2223 15.5508 15.7703 15.0517 16.3453C12.932 18.7827 11.7891 21.6939 11.7903 26.4827C11.791 29.4684 13.2164 32.0205 15.258 34.2018C17.4251 36.5172 20.0375 37.6779 23.0929 37.9372C24.5767 38.0627 26.0395 37.8959 27.4986 37.6631C31.8619 36.967 34.9763 34.5295 36.9845 30.4816C38.1948 28.0418 38.1429 25.6652 38.2161 24.7685Z" fill="#FFC73A"/>
<path d="M26.3019 24.4797C26.6008 24.4797 26.825 24.4797 27.0492 24.4797C28.9389 24.4823 30.8286 24.4817 32.7182 24.4923C32.9655 24.4943 33.2116 24.5273 33.4512 24.5905C33.5752 24.6172 33.6866 24.6875 33.766 24.7894C33.8456 24.8913 33.8884 25.0187 33.8874 25.1496C33.8997 25.2803 33.8688 25.4115 33.7995 25.5217C33.7303 25.6318 33.6268 25.7144 33.5062 25.7557C33.1931 25.863 32.8658 25.9196 32.5359 25.9234C30.688 25.9063 28.8403 25.8631 26.9927 25.8298C26.5982 25.8227 26.2032 25.8313 25.8093 25.8106C25.6032 25.8034 25.3993 25.7653 25.2038 25.6977C24.8948 25.5834 24.7695 25.339 24.7927 24.99C24.8413 24.2637 24.8752 23.5362 24.9011 22.8086C24.9851 20.4505 25.0603 18.0921 25.1467 15.734C25.1662 15.4993 25.2023 15.2663 25.2546 15.037C25.3116 14.7222 25.4897 14.5397 25.809 14.5403C26.1393 14.5409 26.2909 14.7635 26.348 15.0603C26.3945 15.2911 26.4192 15.5259 26.4216 15.7616C26.4194 18.2932 26.4118 20.8247 26.3987 23.3564C26.3968 23.6959 26.3417 24.0352 26.3019 24.4797Z" fill="#FFC73A"/>
</g>
<defs>
<clipPath id="clip0_585_594">
<rect width="30" height="30" fill="white" transform="translate(10 10)"/>
</clipPath>
</defs>
</svg>
